<svg xmlns="http://www.w3.org/2000/svg" xmlns:xlink="http://www.w3.org/1999/xlink" width="883.157" height="523.772" viewBox="0 0 883.157 523.772">
  <defs>
    <clipPath id="clip-path">
      <rect id="gettyimages-1134323487-170667a" width="883.157" height="523.772" transform="translate(679 655.5)" fill="#11305a"/>
    </clipPath>
    <clipPath id="clip-path-2">
      <rect id="Rectangle_275" data-name="Rectangle 275" width="662.234" height="1113.57" fill="none"/>
    </clipPath>
    <clipPath id="clip-path-4">
      <rect id="Rectangle_263" data-name="Rectangle 263" width="53.962" height="44.357" fill="none"/>
    </clipPath>
    <clipPath id="clip-path-5">
      <rect id="Rectangle_264" data-name="Rectangle 264" width="38.788" height="37.564" fill="none"/>
    </clipPath>
    <clipPath id="clip-path-6">
      <rect id="Rectangle_265" data-name="Rectangle 265" width="10.236" height="32.712" fill="none"/>
    </clipPath>
    <clipPath id="clip-path-7">
      <rect id="Rectangle_266" data-name="Rectangle 266" width="87.096" height="70.437" fill="none"/>
    </clipPath>
    <clipPath id="clip-path-8">
      <rect id="Rectangle_267" data-name="Rectangle 267" width="54.307" height="44.642" fill="none"/>
    </clipPath>
    <clipPath id="clip-path-9">
      <rect id="Rectangle_268" data-name="Rectangle 268" width="19.812" height="29.528" fill="none"/>
    </clipPath>
    <clipPath id="clip-path-10">
      <rect id="Rectangle_269" data-name="Rectangle 269" width="90.892" height="37.938" fill="none"/>
    </clipPath>
    <clipPath id="clip-path-11">
      <rect id="Rectangle_270" data-name="Rectangle 270" width="117.018" height="15.849" fill="none"/>
    </clipPath>
    <clipPath id="clip-path-12">
      <rect id="Rectangle_271" data-name="Rectangle 271" width="116.805" height="24.317" fill="none"/>
    </clipPath>
    <clipPath id="clip-path-13">
      <rect id="Rectangle_272" data-name="Rectangle 272" width="26.975" height="13.018" fill="none"/>
    </clipPath>
    <clipPath id="clip-path-14">
      <rect id="Rectangle_273" data-name="Rectangle 273" width="12.098" height="21.3" fill="none"/>
    </clipPath>
  </defs>
  <g id="Mask_Group_3" data-name="Mask Group 3" transform="translate(-679 -655.5)" clip-path="url(#clip-path)">
    <g id="Group_2524" data-name="Group 2524" transform="translate(851.348 794.166)">
      <g id="Group_2523" data-name="Group 2523" clip-path="url(#clip-path-2)">
        <path id="Path_548" data-name="Path 548" d="M296.76,462.843v65.509l86.906-52.829v-.066l-1.318-49.068Z" transform="translate(278.567 400.249)" fill="#870c16"/>
        <path id="Path_549" data-name="Path 549" d="M403.94,550.35,182.58,457.368V402.953l163.775,30.641L405,498.575Z" transform="translate(171.387 378.25)" fill="#870c16"/>
        <path id="Path_550" data-name="Path 550" d="M420.912,462.025,405,517.76,182.58,422.138,205.3,382.515Z" transform="translate(171.388 359.065)" fill="#9a0c19"/>
        <path id="Path_551" data-name="Path 551" d="M355.947,411.128l25.887,29.584L297.305,490.9l14.529-51.971Z" transform="translate(279.079 385.924)" fill="#870c16"/>
        <path id="Path_552" data-name="Path 552" d="M238.676,371.342,452.64,448.475l-45.433,31.7L194.3,393Z" transform="translate(182.386 348.577)" fill="#a80b1a"/>
        <path id="Path_553" data-name="Path 553" d="M181.354,402.68l225.323,94.568,84-48.6-84.529,54.945Z" transform="translate(170.236 377.994)" fill="#a80b1a"/>
        <g id="Group_2522" data-name="Group 2522">
          <g id="Group_2521" data-name="Group 2521" clip-path="url(#clip-path-2)">
            <path id="Path_554" data-name="Path 554" d="M315.3,382.853s35.286,14.472,40.15,16.905c20.077,7.925-2.425,47.576-4.82,52.765-3.17,6.867-21.4.793-20.075-7.4,3.7-9.509,6.933-22.124,9.575-28.991,1.2-3.119-2.642-5.283-23.245-12.679s-46.492-19.019-58.114-19.548c-6.869,1.057-12.679,28-12.679,28-2.642,5.81-24.172.132-19.68-9.114,5.4-11.124,12.284-28.4,14.924-33.152s5.283-13.736,41.209.529Z" transform="translate(211.954 340.236)" fill="#c7c9cb"/>
            <path id="Path_555" data-name="Path 555" d="M236.2,402.7c1.049-4.9,2.28-9.757,3.779-14.552a73.637,73.637,0,0,1,2.592-7.1,31.49,31.49,0,0,1,1.72-3.43,10.026,10.026,0,0,1,2.623-3.094v0l.306-.116a23.024,23.024,0,0,1,8.125-2.016c1.363-.136,2.695-.126,4.034-.143a34.787,34.787,0,0,1,3.988.176,63.471,63.471,0,0,1,7.774,1.2c2.514.609,5.043,1.258,7.474,2.1,2.421.865,4.866,1.714,7.235,2.681s4.783,1.859,7.125,2.875,4.705,1.98,7.03,3.038l6.877,3.325c2.3,1.088,4.554,2.266,6.816,3.418s4.492,2.375,6.71,3.6l6.621,3.749c1.105.618,2.2,1.25,3.288,1.908l.1.06.386.221.046.035.1.072a5.416,5.416,0,0,1,.564.452,4.357,4.357,0,0,1,.745.878,4.981,4.981,0,0,1,.384.7,6.264,6.264,0,0,1,.508,2.038,11.463,11.463,0,0,1-.114,2.635,43.265,43.265,0,0,1-2.173,7.869c-.923,2.435-1.921,4.794-2.959,7.13-1.014,2.34-2.187,4.612-3.331,6.882s-2.437,4.48-3.718,6.675l-.145-.06c1.842-4.672,3.507-9.418,5.035-14.2.758-2.392,1.473-4.8,2.1-7.227a44.309,44.309,0,0,0,1.38-7.346,8.955,8.955,0,0,0-.033-1.813,2.742,2.742,0,0,0-.223-.8.873.873,0,0,0-.512-.473l-3.4-1.625-6.8-3.251c-2.268-1.076-4.569-2.084-6.853-3.129s-4.566-2.092-6.884-3.056l-6.925-2.954L290.6,387.25c-2.325-.94-4.7-1.755-7.043-2.639-2.34-.9-4.74-1.63-7.1-2.462s-4.769-1.518-7.154-2.286c-2.412-.652-4.808-1.386-7.245-1.925-1.212-.3-2.427-.588-3.653-.81-1.219-.252-2.443-.487-3.672-.657a33.127,33.127,0,0,0-7.264-.5l.3-.116a8.753,8.753,0,0,0-2.28,2.514,30.113,30.113,0,0,0-1.787,3.2,72.866,72.866,0,0,0-2.863,6.873c-1.7,4.684-3.147,9.476-4.412,14.311Z" transform="translate(221.725 349.416)" fill="#6d6e70"/>
            <path id="Path_556" data-name="Path 556" d="M253.242,365.666l2.9,1.055c1.85.665,4.49,1.617,7.621,2.86l10.727,4.164c3.937,1.495,8.1,3.189,12.245,4.909l22.848,9.383,10.326,4.416-18.228-6.405s-5.137-2.193-7.2-2.708c-2.078-.471-.266,8.782-.727,12.415-2.121-.647-7.952-8.687-10.07-9.439-2.14-.694-4.228-1.516-6.3-2.29-2.059-.8-4.058-1.661-5.95-2.6s-3.682-1.941-5.349-2.97,3.505,9.9,2.111,8.85c-2.77-2.148-10.833-13.185-12.282-14.858-.739-.8-2.679-6.778-2.679-6.778" transform="translate(237.717 343.249)" fill="#9e9e9e"/>
            <path id="Path_557" data-name="Path 557" d="M205.553,382.515l-7.66,45.435.791,55.206-16.376-5.283,9.246-75.811Z" transform="translate(171.132 359.065)" fill="#870c16"/>
            <path id="Path_558" data-name="Path 558" d="M291.145,599.831a23.654,23.654,0,0,0,9.184-1.844c-1.347-31.512-25.732-30.986-36.921-31.44-29.321-1.188-44.772-7.924-44.772-7.924l-3.831-17.039-29.321-6.6-36.717,6.867-5.019,30.643,20.762,29.528-.159-1.793c22.19,5.944,113.323,0,126.795-.4" transform="translate(134.936 502.186)" fill="#2c2c2c"/>
            <path id="Path_559" data-name="Path 559" d="M215.417,558.425s-31.17-5.283-41.207-.529-14,14.794-13.738,17.7,10.566,5.812,11.888,28.266l-10.566-1.586-15.321-28.528.264-19.284L169.982,532.8l47.285,5.549-4.492,6.867Z" transform="translate(137.494 500.138)" fill="#1a1a1a"/>
            <path id="Path_560" data-name="Path 560" d="M114.453,546.3l.529,37.51,65.509-3.7-.527-42.264Z" transform="translate(107.437 504.872)" fill="#1a1a1a"/>
            <path id="Path_561" data-name="Path 561" d="M160.162,575.8s.264,2.642,1.32,3.433,13.736.266,13.736.266l1.586-3.435h2.906l1.85,3.17c2.113.793,14.527,1.057,14.527,1.057l1.322-2.377,2.64-.264,1.85,2.906c3.433,1.057,13.208-.793,13.208-.793l2.113-2.377h1.848l.793,2.113c4.492.527,16.378.264,16.378.264l.527-2.906h3.7l.264,2.642c6.34.527,15.322-.793,15.322-.793l.527-3.17,4.226.264.266,2.113c5.283.529,14.263-1.586,14.263-1.586l.529-2.9h2.377l.793,3.17,11.886-.529v-4.754c.021-1.332-.008-2.6-.062-3.827a23.608,23.608,0,0,1-9.184,1.846c-13.47.4-104.6,6.34-126.793.4l.159,1.793,3.011,4.283Z" transform="translate(145.384 532.692)" fill="#3b3c3e"/>
            <path id="Path_562" data-name="Path 562" d="M200.645,588.882s1.545-25.227-23.167-34.806c-5.948-2.307-13.418-3.7-22.8-3.629-40.377.332-44.813,28.29-45.181,37.5,10.112,2.637,51.216,11.95,91.144.936" transform="translate(102.788 516.7)" fill="#2c2c2c"/>
            <path id="Path_563" data-name="Path 563" d="M237.228,283.62c-3.9,17.632-7.324,50.577,9.579,84.027,24.831,49.132,30.645,53.359,28.53,66.038s-3.17,19.019,5.81,32.227,11.622,22.188,11.1,30.641,23.243,12.679,19.546-15.322c-.527-.527-1.058-11.093-4.228-14.263l25.756,10.566s5.946-9.509-11.491-30.641c-21.661-25.887,11.622-63.927,15.323-74.492,0,0,23.055-28.753,9.178-99.554-17.014,11.4-66.933,27.729-109.1,10.773" transform="translate(219.688 256.121)" fill="#e8b796"/>
            <path id="Path_564" data-name="Path 564" d="M126.541,102.31s-21.882-48.258,11.225-80.241c0,0,.56-19.641,40.4-21.884S222.5,17.021,263.46,8.605c0,0,9.538,11.783-1.685,17.394,0,0,18.519,18.518-8.416,31.985L218.567,56.3l-47.134-8.418L159.088,78.743l8.976,40.4-18.516,11.783Z" transform="translate(112.126 0.001)" fill="#5a2900"/>
            <path id="Path_565" data-name="Path 565" d="M123.541,56.317a54.979,54.979,0,0,1-1.477-5.446s11.518-6.758,20.769,5.446,7.479,24.41,7.479,24.41L132.006,63.6Z" transform="translate(114.581 46.001)" fill="#2f1000"/>
            <path id="Path_566" data-name="Path 566" d="M188.248,29.866a44.757,44.757,0,0,0-1.753-4.589h0l0,0Z" transform="translate(175.06 23.727)" fill="#e8b796"/>
            <path id="Path_567" data-name="Path 567" d="M252.409,75.246a73.841,73.841,0,0,0-1.039-42.508c-.035.012-20.106,5.954-36.876,1.836-14.437-3.542-31.5-13.648-39.371-12.729-7.474.87-13.755,1.867-14.6,6.119a9.277,9.277,0,0,0,.423,1.27c5.05,8.978-1.123,5.611-6.735,24.129s8.978,44.891,8.978,44.891l-10.1,6.173S151.967,88.152,139.061,80.3c-10.1-6.173-18.518-3.368-19.641,11.223,2.805,33.105,20.762,32.545,20.762,32.545,0,5.05-1.741,38.27-1.741,38.27l-6.675,2.693-1.683,25.812L196.3,274.447l31.985-9.538,10.661-67.337-6.171-9.538c-2.807-2.245-4.49-13.468-4.49-13.468,8.418.562,18.518-1.121,20.2-14.589s7.856-42.646,10.661-60.041-6.733-24.689-6.733-24.689" transform="translate(112.099 20.45)" fill="#e8b796"/>
            <path id="Path_568" data-name="Path 568" d="M187.414,27.683l-.016-.039.014.039Z" transform="translate(175.91 25.949)" fill="#daa17e"/>
            <path id="Path_569" data-name="Path 569" d="M155.266,24.324c7.875-.919,24.935,9.187,39.371,12.731,16.772,4.116,36.843-1.826,36.876-1.836l-.014-.041-1.753-4.587h0c-12.346,8.416-46.571.56-60.6-7.3-13.458-7.538-31.035-2.675-28.479,7.146.845-4.25,7.127-5.246,14.6-6.119" transform="translate(131.808 18.413)" fill="#daa17e"/>
            <path id="Path_570" data-name="Path 570" d="M163.881,64.467a12.445,12.445,0,0,0-2.472,1.727,15.636,15.636,0,0,0-2.1,2.216,13.458,13.458,0,0,0-.989,1.392c-.337.467-.574,1.016-.865,1.518-.258.523-.473,1.068-.7,1.586-.178.541-.355,1.074-.525,1.59-.12.527-.238,1.037-.349,1.52s-.142.956-.209,1.378a16.751,16.751,0,0,0-.163,2.076c-.023.5-.037.785-.037.785l-3.432-.312s.068-.32.188-.882a19.875,19.875,0,0,1,.578-2.3c.155-.465.281-.979.494-1.5l.677-1.625c.285-.539.58-1.1.878-1.661.353-.535.688-1.088,1.064-1.609.411-.5.764-1.035,1.214-1.483a14.768,14.768,0,0,1,1.3-1.3,16.4,16.4,0,0,1,2.58-1.939,12.762,12.762,0,0,1,2.811-1.336Z" transform="translate(142.714 60.368)" fill="#daa17e"/>
            <path id="Path_571" data-name="Path 571" d="M136.416,78.756s.07.366.2,1.053c.145.68.37,1.692.717,2.962a57.31,57.31,0,0,0,3.858,10.188,48.314,48.314,0,0,0,3.7,6.252c.713,1.072,1.6,2.057,2.425,3.127.892,1.01,1.884,1.968,2.854,2.976,1.1.869,2.148,1.834,3.319,2.662l1.83,1.161a11.67,11.67,0,0,0,1.9,1.082,36.86,36.86,0,0,0,8.377,2.949c11.88,2.708,23.931,4.606,32.991,5.824s15.18,2.447,15.18,2.447l1.838,9.187s-4.31-.582-7.051-1.08c-2.693-.514-6.516-1.274-11.08-2.266s-9.868-2.222-15.519-3.668c-2.827-.725-5.739-1.5-8.689-2.334s-6.006-1.731-8.891-2.648l-1.1-.341-1.264-.471-2.433-.942-1.2-.477-1.138-.622q-1.125-.628-2.243-1.249a14.793,14.793,0,0,1-2.1-1.406l-1.995-1.489c-1.266-1.043-2.383-2.216-3.527-3.288-1.006-1.2-2.022-2.356-2.918-3.54-.818-1.241-1.7-2.394-2.381-3.61a51.418,51.418,0,0,1-3.422-6.979,59.245,59.245,0,0,1-3.174-10.942c-.254-1.344-.4-2.4-.5-3.137-.078-.731-.118-1.121-.118-1.121Z" transform="translate(126.595 73.928)" fill="#ba7a56"/>
            <path id="Path_572" data-name="Path 572" d="M146.972,99.162s5.2,7.726,10.642,15.246c2.72,3.759,5.506,7.462,7.669,10.118.541.661,1.033,1.278,1.485,1.784s.836.985,1.163,1.318c.648.682,1.02,1.072,1.02,1.072l-3.78,3.464s-.388-.492-1.064-1.355c-.345-.43-.69-.954-1.126-1.553s-.882-1.28-1.378-2.02c-1.977-2.964-4.424-6.962-6.793-11-4.738-8.063-9.184-16.262-9.184-16.262Z" transform="translate(136.698 93.083)" fill="#daa17e"/>
            <path id="Path_573" data-name="Path 573" d="M139.2,96.872s2.912,4.792,5.739,9.655c1.413,2.433,2.8,4.88,3.811,6.784.508.965.911,1.743,1.2,2.445.07.169.134.32.188.452a5.23,5.23,0,0,1,.169.642c.076.382.095.585.095.585h-4.725a.139.139,0,0,0-.01.091c0,.014.035.1.033.056-.025-.093-.054-.2-.085-.318-.109-.456-.392-1.287-.735-2.237-.694-1.927-1.72-4.525-2.77-7.111-2.1-5.174-4.31-10.322-4.31-10.322Z" transform="translate(129.35 90.933)" fill="#daa17e"/>
            <path id="Path_574" data-name="Path 574" d="M185.076,43.222s1.241,3.877,2.873,9.738c.405,1.464.847,3.052,1.313,4.73s.938,3.449,1.439,5.281c1.012,3.653,2.012,7.586,3.156,11.413.142.481.289.952.446,1.406a12.582,12.582,0,0,0,.446,1.272l.19.475.126.357a1.956,1.956,0,0,1,.126.448,6.189,6.189,0,0,1,.072.76,3.954,3.954,0,0,1-.791,2.315,7.484,7.484,0,0,1-3.005,2.21,15.477,15.477,0,0,1-3.05.952,34.467,34.467,0,0,1-10.733.225,49.308,49.308,0,0,1-7.3-1.454c-1.729-.5-2.7-.847-2.7-.847s1.039-.068,2.821-.068l3.2-.012c1.229.027,2.611-.037,4.108-.025,1.495-.068,3.11-.064,4.791-.209a34.335,34.335,0,0,0,5.153-.679c1.673-.328,3.513-1.018,4.242-1.915a1.2,1.2,0,0,0,.213-.452c.167.293-.167-.725-.235-.855a14.881,14.881,0,0,1-.547-1.592c-.155-.51-.289-1.01-.413-1.506-1.022-3.982-1.877-7.941-2.606-11.681-.376-1.867-.725-3.674-1.022-5.392s-.607-3.338-.843-4.843c-1.01-6.006-1.466-10.052-1.466-10.052" transform="translate(157.401 40.572)" fill="#ba7a56"/>
            <path id="Path_575" data-name="Path 575" d="M177.209,86.453a22.463,22.463,0,0,1,1.121,2.865,24.708,24.708,0,0,1,.758,3.034,21.259,21.259,0,0,1,.361,3.577c-.035.617-.008,1.231-.1,1.834a12.668,12.668,0,0,1-.295,1.756,9.7,9.7,0,0,1-.475,1.6,8.616,8.616,0,0,1-.593,1.373c-.223.405-.428.777-.611,1.107-.225.3-.423.562-.584.779l-.512.673-.671-.568.45-.644c.143-.205.316-.454.516-.737.155-.31.332-.661.523-1.041a7.947,7.947,0,0,0,.5-1.281,8.555,8.555,0,0,0,.382-1.487,11.233,11.233,0,0,0,.213-1.63c.064-.556.014-1.134.029-1.7a20.256,20.256,0,0,0-.461-3.336,23.569,23.569,0,0,0-.82-2.832,20.7,20.7,0,0,0-1.134-2.619Z" transform="translate(164.846 81.153)" fill="#daa17e"/>
            <path id="Path_576" data-name="Path 576" d="M157.84,68.4s5.05,21.884,25.812,23.567,24.129-15.149,24.129-15.149S181.407,78.5,157.84,68.4" transform="translate(148.164 64.21)" fill="#e3e2e2"/>
            <path id="Path_577" data-name="Path 577" d="M137.729,70.729s.161.155.444.423a7.339,7.339,0,0,1,.636.82,6,6,0,0,1,.489,1.093,5.053,5.053,0,0,1,.25,1.353,4.9,4.9,0,0,1-.142,1.518,4.8,4.8,0,0,1-.638,1.512,5.205,5.205,0,0,1-1.134,1.243,5.52,5.52,0,0,1-1.425.762,5.8,5.8,0,0,1-1.45.361,7.615,7.615,0,0,1-1.338.074,7.143,7.143,0,0,1-1.163-.093,10.859,10.859,0,0,1-1.679-.318c-.4-.093-.626-.149-.626-.149l.388-1.524s.209.033.574.093a9.623,9.623,0,0,0,1.5.176,5.518,5.518,0,0,0,.983.01,6.081,6.081,0,0,0,1.049-.128,4,4,0,0,0,1.016-.33,3.41,3.41,0,0,0,.868-.539,3.014,3.014,0,0,0,.589-.752,2.523,2.523,0,0,0,.287-.867,2.627,2.627,0,0,0,.017-.861,2.685,2.685,0,0,0-.2-.742,3.424,3.424,0,0,0-.291-.547c-.109-.1-.114-.165-.231-.277-.3-.248-.471-.39-.471-.39Z" transform="translate(121.986 66.393)" fill="#daa17e"/>
            <path id="Path_578" data-name="Path 578" d="M137.226,87.736a14.786,14.786,0,0,1-3.955-1.477,17.628,17.628,0,0,1-3.379-2.348,15.938,15.938,0,0,1-1.468-1.427,15.227,15.227,0,0,1-1.3-1.568,12.85,12.85,0,0,1-1.14-1.679A13.333,13.333,0,0,1,125,77.475l-.853-1.824-.657-1.89a36.9,36.9,0,0,1-1.006-3.846c-.128-.648-.192-1.3-.291-1.954L121.93,66l-.194-3.922,0-.048.006-.054a25.313,25.313,0,0,1,.39-2.528,12.737,12.737,0,0,1,.82-2.5,6.928,6.928,0,0,1,1.58-2.284,4.766,4.766,0,0,1,1.185-.849,4.818,4.818,0,0,1,1.371-.492,6.923,6.923,0,0,1,2.768.019,11.718,11.718,0,0,1,2.5.806,18.282,18.282,0,0,1,2.255,1.2,19.874,19.874,0,0,1,2.08,1.479l-1,1.212a19.009,19.009,0,0,0-1.923-1.307,16.722,16.722,0,0,0-2.069-1.051,7.184,7.184,0,0,0-4.224-.636,3.5,3.5,0,0,0-1.685.931,5.133,5.133,0,0,0-1.132,1.731,13.926,13.926,0,0,0-.956,4.438l0-.1.262,3.755.285,1.851c.1.613.176,1.235.308,1.842a34.973,34.973,0,0,0,1.01,3.569l.638,1.731.81,1.644a11.464,11.464,0,0,0,.921,1.572,10.732,10.732,0,0,0,1.045,1.477,13.221,13.221,0,0,0,1.179,1.365,13.484,13.484,0,0,0,1.311,1.225,15.115,15.115,0,0,0,2.96,1.974,12.883,12.883,0,0,0,1.615.7,9.629,9.629,0,0,0,1.625.454Z" transform="translate(114.269 49.929)" fill="#daa17e"/>
            <path id="Path_579" data-name="Path 579" d="M126.11,66.186l.481-.444a2.914,2.914,0,0,1,.632-.5,7.553,7.553,0,0,1,1.093-.57,6.739,6.739,0,0,1,1.34-.332,5.779,5.779,0,0,1,1.532-.008,7.1,7.1,0,0,1,1.6.345,7.784,7.784,0,0,1,1.524.729,7.03,7.03,0,0,1,1.371,1.08,5.368,5.368,0,0,1,1.051,1.508,4.18,4.18,0,0,1,.43,1.927A9.238,9.238,0,0,1,137,70.93a5.338,5.338,0,0,1-.4.841,4.15,4.15,0,0,1-.975,1.155,3.716,3.716,0,0,1-.847.607l-.76.436-1.357-3.395.4-.165c.114-.054.335-.095.409-.19s.326-.155.335-.252c.025-.043.1-.078.132-.124a.271.271,0,0,1,.066-.155,1.033,1.033,0,0,0-.039-.558,2.411,2.411,0,0,0-.394-.8,4.325,4.325,0,0,0-.752-.783,5.338,5.338,0,0,0-.946-.634,4.885,4.885,0,0,0-1.039-.382,3.73,3.73,0,0,0-1.018-.142,4.694,4.694,0,0,0-.913.087c-.271.054-.458.167-.673.219-.2.019-.428.252-.591.345l-.537.374Z" transform="translate(118.379 60.341)" fill="#daa17e"/>
            <path id="Path_580" data-name="Path 580" d="M198.427,77.033s-6.312,1.262-8.839.421-6.312,1.683-8.416.841-8.418,0-10.521-.841-6.733-2.1-6.733-2.1" transform="translate(153.869 70.731)" fill="none" stroke="#d0cfcf" stroke-miterlimit="10" stroke-width="0.812"/>
            <path id="Path_581" data-name="Path 581" d="M181.262,33.981s-3.937-5.512-12.6-1.181S147.8,47.367,147.4,50.122s13.78-13.385,33.859-16.142" transform="translate(138.359 29.231)" fill="#5a2900"/>
            <path id="Path_582" data-name="Path 582" d="M178.673,34.751S194.027,41.837,196,44.594c0,0-14.567-19.686-17.324-9.843" transform="translate(167.72 30.034)" fill="#5a2900"/>
            <path id="Path_583" data-name="Path 583" d="M173.378,37.276s-19.686,10.236-20.079,12.6l-.394,2.361s-.787,10.63,3.937,12.993l15.748-1.576s8.662-7.873.787-26.378" transform="translate(143.486 34.991)" fill="#e3e2e2"/>
            <path id="Path_584" data-name="Path 584" d="M179.332,37.885s-.787,12.206,1.968,20.866l10.632.394s2.115-8.66.541-13.778-13.14-7.481-13.14-7.481" transform="translate(168.241 35.563)" fill="#e3e2e2"/>
            <path id="Path_585" data-name="Path 585" d="M166.681,51.5c0,4.494-2.468,8.137-5.512,8.137S155.658,56,155.658,51.5s2.468-8.137,5.512-8.137,5.512,3.643,5.512,8.137" transform="translate(146.116 40.709)" fill="#008bd3"/>
            <path id="Path_586" data-name="Path 586" d="M163.831,50.131c0,2.927-1.607,5.3-3.59,5.3s-3.592-2.373-3.592-5.3,1.609-5.3,3.592-5.3,3.59,2.373,3.59,5.3" transform="translate(147.045 42.083)" fill="#002b39"/>
            <path id="Path_587" data-name="Path 587" d="M189.086,48.457c0,3.335-2,6.037-4.463,6.037s-4.461-2.7-4.461-6.037,2-6.037,4.461-6.037,4.463,2.7,4.463,6.037" transform="translate(169.117 39.82)" fill="#008bd3"/>
            <path id="Path_588" data-name="Path 588" d="M186.981,47.7c0,2.274-1.363,4.118-3.044,4.118s-3.044-1.844-3.044-4.118,1.363-4.118,3.044-4.118,3.044,1.844,3.044,4.118" transform="translate(169.805 40.907)" fill="#002b39"/>
            <path id="Path_589" data-name="Path 589" d="M158.812,58.623c-6.169,0-5.783-11.023-5.956-11.564.427-.043,1.235,9.99,5.956,9.99,4.829,0,11.95-1.888,13.329-2.266,1.681-.589,4.151-9.054,4.585-9.054s-1.229,8.416-3.532,10.254a1.166,1.166,0,0,1-.384.248c-.343.1-8.439,2.392-14,2.392" transform="translate(143.485 42.926)" fill="#daa17e"/>
            <path id="Path_590" data-name="Path 590" d="M191.78,56.111h-.033c-.091,0-9.058-.394-10.6-.394a.787.787,0,0,1-.737-.51c-.05-.134-1.371-9.748-.936-9.777s1.915,7.627,2.247,8.72c2.131.048,7.821.289,9.577.364,1.6-3.635,1.272-12.454,1.266-12.547-.017-.434,1.954,10.042-.1,13.738a.789.789,0,0,1-.688.405" transform="translate(168.393 39.383)" fill="#daa17e"/>
            <path id="Path_591" data-name="Path 591" d="M195.722,105.984s-16.273,9.581-18.111,21.655-1.574,24.542-15.223,21.915,3.019,28.609,3.019,28.609l21-1.179s16.01-57.221,16.535-58.4-7.218-12.6-7.218-12.6" transform="translate(147.391 99.487)" fill="#daa17e"/>
            <path id="Path_592" data-name="Path 592" d="M130.368,105.276s-5.217-10.04-3.641-10.335a36.918,36.918,0,0,1,4.822-.295s-1.475,7.479-1.181,10.63" transform="translate(118.679 88.844)" fill="#2175a9"/>
            <path id="Path_593" data-name="Path 593" d="M165.206,45.976a3.149,3.149,0,1,0-3.15,3.15,3.15,3.15,0,0,0,3.15-3.15" transform="translate(149.165 40.201)" fill="#e3e2e2"/>
            <path id="Path_594" data-name="Path 594" d="M187.32,44.654a2.157,2.157,0,1,0-2.158,2.158,2.157,2.157,0,0,0,2.158-2.158" transform="translate(171.787 39.891)" fill="#e3e2e2"/>
            <path id="Path_595" data-name="Path 595" d="M133.568,20.93S132.78,9.906,150.1,4.918c0,0-8.66,6.037-8.4,9.975,0,0,4.986-4.725,18.9-3.674,0,0-16.273,3.148-18.373,7.086s-3.15,10.762-2.1,12.6c0,0-4.725-3.676-4.2-8.137,0,0-8.137,4.461-9.186,9.186,0,0-2.887-7.611,6.824-11.023" transform="translate(118.597 4.617)" fill="#2f1000"/>
            <path id="Path_596" data-name="Path 596" d="M186.494,29.139s6.1-4.823,7.671-7.974c0,0,1.629,11.58-4.6,16.938Z" transform="translate(175.061 19.868)" fill="#2f1000"/>
            <g id="Group_2490" data-name="Group 2490" transform="translate(239.673 184.868)" opacity="0.13">
              <g id="Group_2489" data-name="Group 2489">
                <g id="Group_2488" data-name="Group 2488" clip-path="url(#clip-path-4)">
                  <path id="Path_597" data-name="Path 597" d="M124.306,95.357s-9.975,20.473,46.457,44.357c0,0,3.937-2.1,6.826-.523,0,0-48.559-18.637-53.283-43.834" transform="translate(-123.626 -95.357)" fill="#fff"/>
                </g>
              </g>
            </g>
            <path id="Path_598" data-name="Path 598" d="M174.026,75.144c-1.7-3.21-.13-9-.064-9.24l1.518.419c-.014.054-2.559,5.992-1.154,8.648Z" transform="translate(162.617 61.864)" fill="#daa17e"/>
            <path id="Path_599" data-name="Path 599" d="M180.848,85.608c-13.385-1.132-17.914-8.6-17.914-8.6.593.516,17.85,12.074,34.58,1.378,0,0-7.15,6.365-16.667,7.218" transform="translate(152.946 72.291)" fill="#daa17e"/>
            <g id="Group_2493" data-name="Group 2493" transform="translate(263.116 151.24)" opacity="0.19">
              <g id="Group_2492" data-name="Group 2492">
                <g id="Group_2491" data-name="Group 2491" clip-path="url(#clip-path-5)">
                  <path id="Path_600" data-name="Path 600" d="M137.5,79.355c-4.74-9.482-2.361,34.253,37.01,36.221,0,0-25.593-13.385-37.01-36.221" transform="translate(-135.718 -78.011)" fill="#fff"/>
                </g>
              </g>
            </g>
            <g id="Group_2496" data-name="Group 2496" transform="translate(320.145 86.053)" opacity="0.19">
              <g id="Group_2495" data-name="Group 2495">
                <g id="Group_2494" data-name="Group 2494" clip-path="url(#clip-path-6)">
                  <path id="Path_601" data-name="Path 601" d="M172.746,48.186l-7.611,26.248c1.834,3.148,9.709,3.936,9.709,0s2.1-42-2.1-26.248" transform="translate(-165.133 -44.386)" fill="#fff"/>
                </g>
              </g>
            </g>
            <path id="Path_602" data-name="Path 602" d="M157.941,68.4s17.883,9.209,49.941,8.418c0,0-22.547-5.225-49.941-8.418" transform="translate(148.259 64.21)" fill="#daa17e"/>
            <path id="Path_603" data-name="Path 603" d="M145.977,10.114c5.25-5.25,25.329-6.5,38.978-2.821s35.827,9.907,50,3.608c0,0-12.729,16.865-52.1,2.691,0,0,11.615,10.762,31.037,12.861,0,0-26.122.723-41.732-10.63-11.549-8.4-26.182-5.709-26.182-5.709" transform="translate(137.028 4.866)" fill="#873f0d"/>
            <path id="Path_604" data-name="Path 604" d="M344.782,279.129c-.82-4.186-1.749-8.493-2.84-12.974l-22.431.295-80.3,10.923a103.729,103.729,0,0,0-3.525,12.53c42.167,16.958,92.088.63,109.1-10.773" transform="translate(221.234 249.839)" fill="#daa17e"/>
            <path id="Path_605" data-name="Path 605" d="M108.606,324.743c-11.1,20.341-3.7,72.643,3.806,81.416,6.431,15.4,3.389,298.74-5.647,341.659,0,0-5.081,7.34,16.378,7.34s74.543-1.128,81.319-1.128,5.083-14.683,5.083-14.683,49.13,5.647,53.649,2.825,5.081-308.338,9.6-348.434-3.387-64.378-3.387-64.378-54.066,13.456-160.8-4.614" transform="translate(96.642 304.835)" fill="#00244d"/>
            <path id="Path_606" data-name="Path 606" d="M136.74,337.969a52.874,52.874,0,0,1-.316,6.545c-.2,1.956-.518,4.238-1.016,6.669-.225,1.221-.57,2.458-.865,3.74-.386,1.252-.717,2.553-1.173,3.817-.473,1.258-.874,2.553-1.45,3.765a36.408,36.408,0,0,1-1.7,3.567,30.3,30.3,0,0,1-1.877,3.238,28.876,28.876,0,0,1-1.933,2.792l-1.811,2.272c-.607.626-1.136,1.173-1.57,1.623-.888.9-1.394,1.411-1.394,1.411l-5.252-6.685,1.254-.913,1.46-1.055,1.755-1.574a22.09,22.09,0,0,0,1.979-2.02,24.438,24.438,0,0,0,2.051-2.46,31.282,31.282,0,0,0,2-2.842c.692-.975,1.239-2.067,1.861-3.125.6-1.068,1.1-2.2,1.654-3.286.465-1.124.985-2.218,1.386-3.317.847-2.181,1.512-4.281,2.018-6.1a50.969,50.969,0,0,0,1.355-6.149Z" transform="translate(109.247 317.165)" fill="#00122d"/>
            <path id="Path_607" data-name="Path 607" d="M186.781,364.463a26.6,26.6,0,0,1-.145,3.61,29.534,29.534,0,0,1-.568,3.583c-.109.6-.285,1.186-.448,1.778a15.956,15.956,0,0,1-.568,1.764,14.974,14.974,0,0,1-.694,1.739c-.277.564-.5,1.161-.83,1.7l-.977,1.66-1.167,1.565a13.317,13.317,0,0,1-1.322,1.471,10.958,10.958,0,0,1-1.47,1.357l-1.6,1.239-1.76,1.014a10.079,10.079,0,0,1-1.836.863l-1.9.739,0,0,2.565-3.1L159.11,702.16l-1.584-.062,9.907-316.907.07-2.268,2.5-.83h0l1.417-.277a5.837,5.837,0,0,0,1.4-.361l1.38-.471,1.3-.671a6.971,6.971,0,0,0,1.252-.789,8.854,8.854,0,0,0,1.194-.913l1.128-1.039,1.022-1.179c.357-.388.62-.853.942-1.279a11.957,11.957,0,0,0,.857-1.363,13.256,13.256,0,0,0,.774-1.437c.237-.494.492-.983.686-1.5a27.533,27.533,0,0,0,1.109-3.15,24.8,24.8,0,0,0,.737-3.272Z" transform="translate(147.869 342.051)" fill="#00122d"/>
            <path id="Path_608" data-name="Path 608" d="M145.746,385.711l-6.832,311.882-7.458-.244,12.706-311.69Z" transform="translate(123.397 362.017)" fill="#00122d"/>
            <path id="Path_609" data-name="Path 609" d="M189.87,400.264,186.563,671.4l-7.662,1.437,9.385-272.606Z" transform="translate(167.934 375.692)" fill="#00122d"/>
            <path id="Path_610" data-name="Path 610" d="M523.832,183.905c-.021-.023-.041-.047-.06-.072-15.029-19.666-46.441-45-110.572-48.686l-47.956-2.788a1.266,1.266,0,0,1-.964-.523c-1.857-2.58-10.521-14.589-12.551-16.884a1.253,1.253,0,0,0-.477-.343c-1.84-.756-13.065-5.238-18.606-4.38a1.262,1.262,0,0,0-1.008,1.5,61.441,61.441,0,0,0,1.473,6.468,1.245,1.245,0,0,1-.194,1.183c-2.482,3.253-14.089,18.751-14.593,24.8-.485,5.808-5.946,23.648-7.5,34.317a1.287,1.287,0,0,1-2.433.366c-4.893-10.234-17.322-35.5-22.258-38.636-6.184-3.936-44.817-19.059-47.4-34.792a1.353,1.353,0,0,1,0-.442l1.468-9.3a1.282,1.282,0,0,0-1.026-1.464c-2.621-.5-8.633-1.38-9.511.818-1.105,2.763-9.238,29.846-18.579,34.722a1.289,1.289,0,0,0-.717.977,23.816,23.816,0,0,0-.19,5.221,1.276,1.276,0,0,1-1.225,1.47c-12.538.328-78.219,2.815-108.046,11.258-25.868,7.322-49.7,36.707-49.7,36.707l.132.085c-10.05,13.924-22.807,37.936-29.794,75.927C8.936,330.011,7.3,359.382,15.871,378.411a1.227,1.227,0,0,1,.1.616l-2.245,26.2a1.288,1.288,0,0,0,1.1,1.384L136.047,423.7a1.272,1.272,0,0,0,1.44-1.016c1.186-6.146,6.245-35.214,2.272-65.148,1.786,2.487,3.691,4.971,5.762,7.448,28.78,34.423,50.23,116.213,40.682,146.2a1.194,1.194,0,0,0-.035.143c-.194,1.117-2.134,14.056,11.308,16.7a1.3,1.3,0,0,1,1.068,1.25l.05,5.126a1.283,1.283,0,0,0,1.126,1.264c12.759,1.563,131.194,15.721,157.992,6.018a1.288,1.288,0,0,0,.748-1.725,1.281,1.281,0,0,1,.636-1.675c3.17-1.45,11.729-6.057,10.343-12.982-1.692-8.47-3.112-36.647,21.171-79,12.365-21.566,30.585-44.747,45.643-73.337a1.283,1.283,0,0,1,2.408.39l2.708,17.607a1.288,1.288,0,0,0,1.4,1.086L559.313,380.4a1.286,1.286,0,0,0,1.157-1.227l.746-18.695c2.375-117.177-25.835-164.217-37.384-176.573" transform="translate(9.885 87.892)" fill="#57a6dd"/>
            <path id="Path_611" data-name="Path 611" d="M163.56,497.835s-.045-1.406-.128-4.04-.169-6.5-.227-11.419-.064-10.89-.027-17.743c.1-6.849.167-14.581.481-23.012.242-8.431.684-17.565,1.289-27.221s1.481-19.837,2.662-30.358q.963-7.834,1.952-15.907c.607-5.372,1.384-10.83,1.867-16.295q.649-8.186,1.3-16.483c.394-5.533.521-11.13.818-16.7.339-5.576.374-11.167.475-16.733q.073-4.176.143-8.331c.056-2.77-.031-5.533-.041-8.286-.079-5.5-.05-10.965-.207-16.361s-.3-10.729-.454-15.971c-.5-10.483-.977-20.618-1.718-30.217-.3-4.8-.7-9.467-1.1-13.978s-.8-8.87-1.173-13.053c-.752-8.371-1.6-16.029-2.356-22.818-.82-6.782-1.543-12.695-2.226-17.551-1.27-9.728-2.167-15.254-2.167-15.254l1.557-.3s.281,1.38.808,3.967c.512,2.586,1.258,6.38,2.121,11.223s1.807,10.74,2.879,17.51c1.008,6.776,2.142,14.426,3.207,22.8.6,4.176,1.037,8.548,1.535,13.069s1.012,9.2,1.423,14.013c.962,9.624,1.669,19.8,2.41,30.327q.4,7.907.818,16.056c.308,5.426.295,10.93.454,16.473.041,2.772.159,5.554.136,8.348s-.031,5.6-.047,8.4c-.037,5.612-.008,11.25-.285,16.886-.242,5.638-.374,11.268-.744,16.888q-.637,8.439-1.268,16.785c-.469,5.543-1.221,10.948-1.807,16.339-.326,2.714-.589,5.308-.962,8.073q-.521,3.943-1.037,7.828c-1.235,10.388-2.146,20.48-3.026,30.057q-.57,7.191-1.105,13.972-.555,6.77-.983,13.071c-.566,8.389-1.086,16.078-1.545,22.894-.438,6.824-.818,12.772-1.132,17.669-.628,9.8-.989,15.4-.989,15.4Z" transform="translate(152.75 131.234)" fill="#2684b6"/>
            <path id="Path_612" data-name="Path 612" d="M185.614,337s.186,1.6.675,3.994a58.672,58.672,0,0,0,2.447,8.534,40.678,40.678,0,0,0,1.9,4.261,31.61,31.61,0,0,0,2.088,3.393c.355.446.679.855.967,1.217a10.065,10.065,0,0,0,.8.865c.452.465.712.731.712.731l-2.7,2.7-.795-.96a13.1,13.1,0,0,1-.874-1.121c-.3-.452-.638-.96-1.006-1.516a34.715,34.715,0,0,1-2.01-3.984,43.616,43.616,0,0,1-1.654-4.736,61.161,61.161,0,0,1-1.789-9.073c-.295-2.487-.347-4.182-.347-4.182Z" transform="translate(172.752 316.337)" fill="#00122d"/>
            <path id="Path_613" data-name="Path 613" d="M174.727,144.289a6.212,6.212,0,1,0-6.212,6.212,6.212,6.212,0,0,0,6.212-6.212" transform="translate(152.354 129.612)" fill="#320d11"/>
            <path id="Path_614" data-name="Path 614" d="M174.727,144.289a6.212,6.212,0,1,0-6.212,6.212,6.212,6.212,0,0,0,6.212-6.212" transform="translate(152.354 129.612)" fill="#185b83"/>
            <path id="Path_615" data-name="Path 615" d="M183.706,197.472a6.212,6.212,0,1,0-6.212,6.212,6.212,6.212,0,0,0,6.212-6.212" transform="translate(160.783 179.535)" fill="#185b83"/>
            <path id="Path_616" data-name="Path 616" d="M184.033,251.586a6.212,6.212,0,1,0-6.212,6.212,6.212,6.212,0,0,0,6.212-6.212" transform="translate(161.09 230.332)" fill="#185b83"/>
            <path id="Path_617" data-name="Path 617" d="M178.719,305.133a6.212,6.212,0,1,0-6.212,6.212,6.212,6.212,0,0,0,6.212-6.212" transform="translate(156.101 280.596)" fill="#185b83"/>
            <path id="Path_618" data-name="Path 618" d="M19.623,240.4s-10.566,1.32-10.566,14.529,4.754,23.774.527,36.453-5.283,31.17,6.869,35.4,104.075,13.736,124.15,5.81,8.455-31.17,7.925-39.621,1.584-31.17-4.754-30.114-69.21,20.077-120.453-8.98l-4.1-2.774Z" transform="translate(6.267 225.665)" fill="#2684b6"/>
            <path id="Path_619" data-name="Path 619" d="M356.708,231s5.812,0,5.812,10.039,0,26.942,1.584,36.981.529,22.718-13.208,27.471c0,0-43.056,30.907-111.737,12.415-12.679-4.226-11.359-35.131-9.773-40.414,1.115-3.715-.295-19.182,2.047-26.746.465-1.5,2.724-2.15,3.36-2.931.471,1.115.281,4.449,1.528,4.449,7.923,0,95.556,8.321,120.387-21.264" transform="translate(214.394 216.84)" fill="#2684b6"/>
            <path id="Path_620" data-name="Path 620" d="M21.7,261.685l.839.473c.492.266,1.411.744,2.557,1.258,1.152.541,2.608,1.134,4.3,1.8,1.714.613,3.631,1.367,5.81,2,1.084.326,2.206.694,3.385,1.027l3.68.967c2.526.669,5.246,1.206,8.048,1.811,2.832.462,5.737,1.107,8.744,1.46,3,.4,6.045.863,9.122,1.1,3.069.3,6.144.6,9.186.719,3.04.159,6.033.376,8.939.372,2.9.031,5.715.124,8.381.1l7.518-.169c2.332-.023,4.467-.134,6.357-.266l4.9-.293c2.72-.163,4.275-.258,4.275-.258l.182,1.576-4.263.57-4.9.657c-1.89.271-4.027.541-6.369.737l-7.563.727c-2.689.221-5.531.337-8.474.522-2.941.221-5.989.223-9.091.289-3.1.107-6.252.033-9.41-.046-3.16-.014-6.314-.25-9.428-.44-3.115-.138-6.167-.578-9.135-.843-2.955-.413-5.824-.766-8.528-1.27l-3.943-.735c-1.27-.26-2.493-.562-3.672-.826-2.359-.506-4.5-1.163-6.407-1.694-1.9-.589-3.559-1.128-4.924-1.65-1.382-.506-2.408-.94-3.232-1.311l-1.155-.545Z" transform="translate(16.361 245.643)" fill="#185b83"/>
            <path id="Path_621" data-name="Path 621" d="M42.743,271.749l1.63.186c1.039.132,2.516.275,4.271.432,3.54.326,8.245.514,13.082.834,1.214.1,2.433.194,3.653.341s2.425.306,3.6.547c1.181.207,2.319.512,3.4.793,1.066.347,2.1.632,3.013,1.02a26.568,26.568,0,0,1,2.483,1.062c.731.339,1.367.646,1.859.933l1.582.876L76.758,285.3s-.419-.332-1.152-.915c-.361-.308-.822-.632-1.355-1a20.273,20.273,0,0,0-1.832-1.184c-.671-.44-1.462-.8-2.282-1.235-.847-.376-1.741-.793-2.722-1.138-.965-.378-2.01-.7-3.086-1.018s-2.2-.6-3.337-.89c-4.568-1.086-9.3-2.082-12.786-3.007-1.756-.459-3.2-.853-4.2-1.152s-1.576-.456-1.576-.456Z" transform="translate(39.83 255.09)" fill="#185b83"/>
            <path id="Path_622" data-name="Path 622" d="M333.578,250.421l-.8.7c-.529.467-1.316,1.082-2.323,1.884-1.029.76-2.261,1.716-3.74,2.708-1.45,1.041-3.16,2.1-5.01,3.278-1.892,1.1-3.91,2.367-6.144,3.519l-3.422,1.809q-1.786.855-3.645,1.741c-2.458,1.231-5.1,2.249-7.755,3.387-2.672,1.084-5.446,2.032-8.195,3.053-2.8.863-5.587,1.782-8.362,2.584-2.8.717-5.552,1.425-8.216,2.111l-7.776,1.6c-2.476.5-4.847.77-7.024,1.126-2.179.326-4.176.669-5.962.8-1.784.176-3.338.328-4.618.454l-4.027.4-.295-6.423,3.912-.18c1.245-.056,2.759-.126,4.494-.2,1.743-.035,3.687-.268,5.816-.473,2.125-.236,4.445-.38,6.871-.735l7.631-1.154,8.092-1.634c2.737-.64,5.5-1.392,8.272-2.088,2.724-.857,5.483-1.638,8.142-2.559,2.641-.977,5.287-1.836,7.745-2.912q1.861-.771,3.656-1.516,1.759-.814,3.435-1.594c2.249-1.012,4.283-2.148,6.2-3.129,1.867-1.062,3.6-2.008,5.07-2.951,1.5-.9,2.749-1.766,3.8-2.458,1.014-.725,1.826-1.293,2.336-1.7l.8-.632Z" transform="translate(231.174 233.945)" fill="#185b83"/>
            <path id="Path_623" data-name="Path 623" d="M231.329,255.654l.448-.07,1.181-.252c1.078-.237,2.642-.551,4.533-.868s4.112-.6,6.512-.8a73.554,73.554,0,0,1,7.559-.219c1.291.023,2.586.074,3.856.19,1.276.074,2.526.223,3.734.39,1.216.13,2.377.343,3.48.555,1.107.19,2.15.4,3.1.657.954.238,1.834.442,2.606.655l1.979.624,1.729.547-2.069,5.1-1.52-.646-1.751-.748-2.328-.832c-.849-.324-1.791-.611-2.8-.886-1-.295-2.063-.6-3.181-.83-1.113-.266-2.268-.522-3.461-.706-1.185-.229-2.4-.394-3.62-.535a70.731,70.731,0,0,0-7.222-.494c-2.321-.035-4.492.037-6.353.157s-3.408.289-4.5.419l-1.345.145c-.295.017-.452.025-.452.025Z" transform="translate(217.148 237.887)" fill="#185b83"/>
            <path id="Path_624" data-name="Path 624" d="M247.682,375.922c-4.118,3.224-6.34,25.358,13.736,30.114,0,0,2.642,10.566,16.378,8.453,0,0,6.34,6.869,14.265,3.17,0,0,17.433,6.869,25.358-10.566,0,0,5.283-6.869-14.792-12.152s-22.718-12.15-22.718-12.15-12.679-12.681-18.491-2.113c0,0-1.584-14.265-13.736-4.756" transform="translate(229.908 349.808)" fill="#e8b796"/>
            <path id="Path_625" data-name="Path 625" d="M88.954,284.509l-.743-1.084c-.5-.717-1.142-1.784-1.987-3.141-.783-1.386-1.8-3.04-2.8-5.017-1.068-1.946-2.136-4.207-3.309-6.675-.6-1.225-1.115-2.553-1.708-3.9-.572-1.357-1.21-2.743-1.733-4.217q-.829-2.2-1.7-4.506c-.585-1.537-1.051-3.15-1.6-4.769-1.126-3.23-2.008-6.648-2.957-10.112-.512-1.724-.874-3.5-1.266-5.269s-.783-3.558-1.175-5.339c-.651-3.589-1.221-7.2-1.8-10.748-.394-3.575-.783-7.094-1.159-10.5-.186-3.424-.368-6.733-.539-9.87-.12-1.57-.1-3.1-.089-4.577s.01-2.908.016-4.281c.027-2.743-.043-5.267.157-7.489l.357-5.766c.2-3.2.314-5.029.314-5.029l6.5.733-.512,4.862-.587,5.585c-.291,2.156-.324,4.6-.465,7.27-.062,1.334-.126,2.724-.194,4.162s-.159,2.927-.1,4.457c.035,3.063.074,6.291.112,9.633.223,3.335.456,6.782.69,10.285.421,3.484.826,7.032,1.311,10.57q.465,2.638.927,5.267c.308,1.753.587,3.505,1.016,5.211.783,3.428,1.5,6.82,2.472,10.031.469,1.609.857,3.216,1.367,4.748s1,3.032,1.481,4.494c.454,1.471,1.02,2.856,1.524,4.213.527,1.347.973,2.677,1.516,3.9,1.045,2.472,2,4.742,2.968,6.7.9,1.989,1.828,3.647,2.54,5.045.768,1.359,1.361,2.441,1.8,3.135.419.708.677,1.088.677,1.088Z" transform="translate(60.432 161.666)" fill="#2175a9"/>
            <path id="Path_626" data-name="Path 626" d="M230.686,300.714c4.108-8.871,8.137-17.811,11.657-26.907l.072-.186.175-.151a39.817,39.817,0,0,0,4.707-4.977,45.365,45.365,0,0,0,3.9-5.657,42.5,42.5,0,0,0,2.931-6.175,37.851,37.851,0,0,0,1.768-6.58c.415-2.29.706-4.538.983-6.863.252-2.309.5-4.62.669-6.942.393-4.635.572-9.29.7-13.939,0-2.324.079-4.651.025-6.973s-.048-4.647-.182-6.964c-.1-2.319-.206-4.635-.411-6.944l-.273-3.462-.39-3.447c-.223-2.305-.587-4.583-.944-6.861-.3-2.29-.828-4.529-1.266-6.785-.409-2.264-1.1-4.447-1.636-6.671-.6-2.2-1.384-4.341-2.063-6.51l5.079-1.753c.649,2.323,1.394,4.624,1.952,6.956.485,2.348,1.126,4.668,1.473,7.03.378,2.355.841,4.7,1.076,7.068.289,2.363.584,4.723.733,7.09l.281,3.548.159,3.55c.13,2.365.165,4.73.18,7.1.058,2.363-.021,4.727-.052,7.088s-.18,4.719-.266,7.076c-.285,4.709-.626,9.414-1.183,14.1-.246,2.344-.582,4.682-.915,7.02-.355,2.317-.748,4.7-1.249,7.01a40.3,40.3,0,0,1-2.111,6.9,44.473,44.473,0,0,1-3.307,6.4,47.071,47.071,0,0,1-4.267,5.76,41.261,41.261,0,0,1-5.114,5.046l.244-.335c-3.552,9.176-7.58,18.111-11.7,27.016Z" transform="translate(216.544 155.791)" fill="#2175a9"/>
            <path id="Path_627" data-name="Path 627" d="M192.39,241.811s72.377-8.453,86.642-20.075c0,0-21.132,22.718-86.642,20.075" transform="translate(180.596 208.143)" fill="#2684b6"/>
            <path id="Path_628" data-name="Path 628" d="M298.018,307.065a.781.781,0,0,1-.279-.05.79.79,0,0,1-.461-1.02c4.226-11.273,1.948-20.453-6.59-26.548a.793.793,0,1,1,.923-1.289c9.184,6.557,11.656,16.376,7.148,28.394a.79.79,0,0,1-.741.514" transform="translate(272.556 260.965)" fill="#ba7a56"/>
            <path id="Path_629" data-name="Path 629" d="M300.113,305.937a.822.822,0,0,1-.285-.052.8.8,0,0,1-.456-1.026c4.951-12.873-8.505-18.815-9.081-19.061a.792.792,0,1,1,.624-1.456c.155.066,15.43,6.8,9.938,21.087a.8.8,0,0,1-.741.508" transform="translate(272.044 266.849)" fill="#ba7a56"/>
            <path id="Path_630" data-name="Path 630" d="M298.529,307.193a.79.79,0,0,1-.748-1.051c1.427-4.128,1.361-7.429-.2-9.821-2.27-3.486-7-3.918-7.045-3.924a.791.791,0,0,1-.725-.853.821.821,0,0,1,.855-.725c.225.019,5.552.506,8.243,4.637,1.838,2.821,1.962,6.592.365,11.2a.792.792,0,0,1-.748.533" transform="translate(272.045 272.989)" fill="#ba7a56"/>
            <path id="Path_631" data-name="Path 631" d="M296.7,307.157a.752.752,0,0,1-.25-.041.793.793,0,0,1-.5-1c.714-2.14.663-3.759-.151-4.814-1.309-1.693-4.3-1.539-4.327-1.539a.813.813,0,0,1-.843-.739.793.793,0,0,1,.737-.843c.159-.006,3.852-.227,5.686,2.152,1.159,1.5,1.291,3.614.4,6.285a.8.8,0,0,1-.752.541" transform="translate(272.813 279.892)" fill="#ba7a56"/>
            <path id="Path_632" data-name="Path 632" d="M254.509,402.647c-5.339-20.281-.525-25.69-.295-25.92l2.012-.363c.752-1.214-5.981,8.457-.925,27.661Z" transform="translate(236.553 353.196)" fill="#daa17e"/>
            <path id="Path_633" data-name="Path 633" d="M262.694,409.768c-.048-.172-4.667-17.159-1.493-31.971l1.551.331c-3.092,14.422,1.109,31.67,1.156,31.837Z" transform="translate(244.144 354.637)" fill="#daa17e"/>
            <path id="Path_634" data-name="Path 634" d="M271.048,399.936a12.819,12.819,0,0,1-1.7-.465c-1.939-.744-2.431-1.6-2.431-7.691h1.586c0,5.669.413,5.828,1.413,6.212a20.893,20.893,0,0,1,2.185,1.944Z" transform="translate(250.558 367.763)" fill="#daa17e"/>
            <path id="Path_635" data-name="Path 635" d="M61.279,171.68l.518.485a18.832,18.832,0,0,1,1.322,1.524c1,1.268,2.154,3,3.4,4.443a15.686,15.686,0,0,0,1.912,1.9,11.3,11.3,0,0,0,1.787,1.225,10.213,10.213,0,0,0,1.338.6c.324.12.51.186.51.186l-3.005,5.634-.7-.527a15.935,15.935,0,0,1-1.7-1.514,16.9,16.9,0,0,1-1.935-2.439,20.253,20.253,0,0,1-1.6-2.958c-.9-2.03-1.493-3.994-2.038-5.372-.283-.7-.5-1.2-.7-1.574-.229-.39-.359-.615-.359-.615Z" transform="translate(56.361 161.155)" fill="#2175a9"/>
            <path id="Path_636" data-name="Path 636" d="M243.679,178.251l.454-.38c.295-.254.715-.64,1.216-1.113a36.173,36.173,0,0,0,3.391-3.751,26.2,26.2,0,0,0,1.53-2.21,20.346,20.346,0,0,0,1.072-2.063,12.054,12.054,0,0,0,.523-1.537l.159-.6,1.582.1s0,.262,0,.719a14.059,14.059,0,0,1-.149,1.9,22.385,22.385,0,0,1-.6,2.6,29.132,29.132,0,0,1-1.057,2.854,40.171,40.171,0,0,1-2.639,5.015c-.413.657-.768,1.2-1.033,1.582s-.436.609-.436.609Z" transform="translate(228.741 156.383)" fill="#2175a9"/>
            <path id="Path_637" data-name="Path 637" d="M15.918,242.583s-6.076.793-5.547,3.963,18.489,20.868,64.188,24.565,68.153-8.453,68.153-8.453,1.057-2.906-3.963-1.584a200.774,200.774,0,0,1-62.87,6.076c-31.961-2.113-60.094-18.1-60.094-18.1Z" transform="translate(9.705 227.712)" fill="#185b83"/>
            <path id="Path_638" data-name="Path 638" d="M175.466,133.578s-9.9-9.114-19.416-1.188-20.581,37.539-20.581,37.539-2-7.425-.419-14.162,7.386-23.007,15.849-30.114c4.55-3.819,18.623-9.509,24.567,7.925" transform="translate(126.199 114.166)" fill="#185b83"/>
            <path id="Path_639" data-name="Path 639" d="M116.938,119.306l37.675,54.218-4.6,1.057,0-.008c.279-1.815.6-3.521.954-5.262s.741-3.453,1.157-5.169c.832-3.431,1.793-6.832,2.91-10.19,2.253-6.692,5.037-13.338,9.4-19.168a31.609,31.609,0,0,1,3.682-4.075,21.089,21.089,0,0,1,4.591-3.2,10.1,10.1,0,0,1,1.3-.58l.661-.264.165-.066.176-.062.08-.021.314-.081,2.52-.657c.884-.182,1.9-.24,2.834-.349a17.093,17.093,0,0,1,2.836.1,12.4,12.4,0,0,1,5.331,1.908,13.629,13.629,0,0,1,2.2,1.766c.324.335.682.644.973,1l.847,1.1a20.8,20.8,0,0,1,2.557,4.8,25.684,25.684,0,0,1,1.417,5.209l-1.568.235a24.077,24.077,0,0,0-1.516-4.763,18.827,18.827,0,0,0-2.5-4.267l-.783-.934c-.266-.306-.587-.549-.876-.828a11.325,11.325,0,0,0-1.91-1.411,16.742,16.742,0,0,0-2.142-.954,16.47,16.47,0,0,0-2.309-.43,14.466,14.466,0,0,0-2.356.014c-.779.138-1.514.171-2.321.366l-2.491.76-.312.095-.078.023c.182-.058.041-.012.078-.021l-.017.008-.033.015-.136.06-.537.246a7.574,7.574,0,0,0-1.059.525,18.2,18.2,0,0,0-3.81,2.9,28.309,28.309,0,0,0-3.137,3.782c-3.765,5.477-6.2,11.929-8.09,18.451-.94,3.273-1.735,6.6-2.4,9.947-.333,1.677-.642,3.356-.911,5.041s-.518,3.395-.7,5.023v0l-1.093,6.785-3.509-5.729L113.636,116Z" transform="translate(106.67 108.893)" fill="#2684b6"/>
            <path id="Path_640" data-name="Path 640" d="M171.436,130.9s4.566-4.362,8.133-2.776,24.17,42.4,24.17,42.4l-4.558-15.353s-12.778-28.429-15.056-30.709-6.537-5.25-8.916-2.97-3.773,9.412-3.773,9.412" transform="translate(160.926 113.276)" fill="#185b83"/>
            <path id="Path_641" data-name="Path 641" d="M170.648,136.785a30.814,30.814,0,0,1,1.223-3.986,16.959,16.959,0,0,1,1.972-3.8,7.626,7.626,0,0,1,3.523-2.947,5.585,5.585,0,0,1,4.775.651,11.411,11.411,0,0,1,1.764,1.417,12.318,12.318,0,0,1,1.466,1.617c.227.293.456.531.678.869l.58.837c.39.547.766,1.128,1.132,1.737,1.5,2.388,2.77,4.779,4.036,7.22,2.5,4.87,4.81,9.818,7.032,14.792l3.292,7.479,3.232,7.452,0,0-3.645.508q1.995-13.037,4.4-25.971,1.216-6.473,2.619-12.918c.477-2.148.981-4.29,1.533-6.427.264-1.068.589-2.131.878-3.195s.688-2.119,1.026-3.178l1.689-4.99c-.287,1.043-.8,7.567-1.049,8.623s-.514,2.1-.731,3.172c-.456,2.127-.861,4.267-1.245,6.415-.756,4.3-1.433,8.614-2.057,12.939-1.237,8.65-2.326,17.34-3.284,26.015l-.812,7.377-2.83-6.869,0,0-3-7.605-3.017-7.547c-2.04-5.017-4.16-10-6.456-14.876-1.152-2.423-2.356-4.872-3.668-7.134-.314-.568-.655-1.14-1.037-1.712l-.547-.859c-.142-.237-.372-.5-.554-.752A11.4,11.4,0,0,0,181,128.515a3.5,3.5,0,0,0-2.988-.566,5.758,5.758,0,0,0-2.658,2.15,14.97,14.97,0,0,0-1.881,3.352,28.435,28.435,0,0,0-1.3,3.757Z" transform="translate(160.187 106.973)" fill="#2684b6"/>
            <path id="Path_642" data-name="Path 642" d="M130.287,105.276s-5.25-10.1-3.666-10.4a37.184,37.184,0,0,1,4.854-.3s-1.485,7.528-1.188,10.7" transform="translate(118.579 88.78)" fill="#2175a9"/>
            <path id="Path_643" data-name="Path 643" d="M177.83,109.312l3.368-4.062s.2-3.071-4.953-1.784c0,0,.547,4.36,1.586,5.845" transform="translate(165.44 96.828)" fill="#185b83"/>
            <path id="Path_644" data-name="Path 644" d="M354.773,231s1.85,9.509-17.962,16.905-74.9,13.468-104.6,5.549c-3.963-1.059-.109-4.029.948-4.029.223.743.52,2.2.52,2.2s73.816,4.728,102.08-7.951c0,0,17.433-8.453,19.019-12.679" transform="translate(216.328 216.84)" fill="#185b83"/>
            <path id="Path_645" data-name="Path 645" d="M94.967,229.85c-16.663-4.3,77.66,6.869,90.869,3.7,0,0-25.358,13.206-90.869-3.7" transform="translate(87.299 214.821)" fill="#2684b6"/>
            <path id="Path_646" data-name="Path 646" d="M270.265,363.643a24.243,24.243,0,0,0,3.7,18.1l13.14,5.281s-13.867-9.112-16.84-23.377" transform="translate(253.287 341.35)" fill="#daa17e"/>
            <path id="Path_647" data-name="Path 647" d="M270.974,370.231s3.367-4.556,6.339-4.953c0,0-4.953,6.339-2.179,12.879s-4.16-7.925-4.16-7.925" transform="translate(254.362 342.885)" fill="#daa17e"/>
            <path id="Path_648" data-name="Path 648" d="M253.4,378.6s8.255-10.3,15.452.991c6.029,9.457,1.32,12.547,12.086,18.226,5.351.793,10.17.991,13.075-4.49,0,0,1.72-.661,16.644,6.669.859,1.256.4,6.142-3.767,9.907,0,0,3.965-8.321-3.367-10.7s-19.7,6.611-22.584,9.509c-.153.339-.576.361-1.183.122-1.989-11.316-12.043-10.209-13.873-17.557-2.22-8.9-9.114-12.811-12.481-12.679" transform="translate(237.864 351.356)" fill="#daa17e"/>
            <path id="Path_649" data-name="Path 649" d="M252.989,379.479s5.349-2.972,8.519-.991l-4.953-2.377a3.877,3.877,0,0,0-3.565,3.368" transform="translate(237.48 353.054)" fill="#daa17e"/>
            <path id="Path_650" data-name="Path 650" d="M246.04,376.7s10.5-4.756,12.679,5.746a3.833,3.833,0,0,0,1.386-1.586c.494-1.468.076-3.74-1.782-6.339-2.972-4.16-11.1-.991-12.284,2.179" transform="translate(230.957 349.692)" fill="#daa17e"/>
            <path id="Path_651" data-name="Path 651" d="M185.389,331.141c0,4.851-6.15,8.782-13.736,8.782s-13.736-3.932-13.736-8.782,6.15-8.782,13.736-8.782,13.736,3.932,13.736,8.782" transform="translate(148.237 302.597)" fill="#353537"/>
            <path id="Path_652" data-name="Path 652" d="M107.47,317.288s1.685.494,1.685,4.16-.1,13.868-.1,13.868l32.192,5.448-.4-1.683-30.015-5.25s1.09-12.383.4-13.769-2.379-3.269-3.765-2.774" transform="translate(100.882 297.761)" fill="#00122d"/>
            <path id="Path_653" data-name="Path 653" d="M128.343,330.228s18.491,5.151,45.435,5.678c0,0,.4,2.379,3.961,3.3s39.889,1.716,43.19-.4,3.3-3.3,3.3-3.3l20.075-3.038-1.981-1.981s-19.943,4.095-23.906,4.095-55.34-.132-90.339-5.415Z" transform="translate(120.227 308.992)" fill="#00122d"/>
            <path id="Path_654" data-name="Path 654" d="M263.14,381.084s.461,10.7,7.33,12.811,14.924-3.368,14.4-7.065a7.959,7.959,0,0,1-9.377,4.158c-6.869-1.584-10.764-4.358-12.349-9.9" transform="translate(247.009 357.722)" fill="#ba7a56"/>
            <path id="Path_655" data-name="Path 655" d="M101.169,311.8s12.679,11.359,58.905,14,109.492,6.341,122.173.793a33.96,33.96,0,0,1-10.3,8.189c-6.605,3.433-112,3.17-155.586-7.66-14.66-6.076-15.19-15.322-15.19-15.322" transform="translate(94.967 292.685)" fill="#2684b6"/>
            <path id="Path_656" data-name="Path 656" d="M108.161,318.884s47.548,6.735,85.19,7.925c0,0,69.339.4,73.7,0V337.9s-10.3,10.3-122.039-.793c0,0-32.093-3.565-37.642-6.735,1.981-3.963.793-11.491.793-11.491" transform="translate(100.786 299.335)" fill="#464749"/>
            <path id="Path_657" data-name="Path 657" d="M107.287,319.77s109.228,24.963,154.266,14.66l.659,4.887s-36.981,15.32-155.321-8.982Z" transform="translate(100.339 300.167)" fill="#353537"/>
            <path id="Path_658" data-name="Path 658" d="M109.293,336.269h0a3.776,3.776,0,0,1-3.765-3.765V321.013a3.765,3.765,0,0,1,7.53,0V332.5a3.776,3.776,0,0,1-3.765,3.765" transform="translate(99.059 297.801)" fill="#00244d"/>
            <path id="Path_659" data-name="Path 659" d="M190.33,340.152h0a3.776,3.776,0,0,1-3.765-3.765V324.9a3.765,3.765,0,0,1,7.53,0v11.491a3.776,3.776,0,0,1-3.765,3.765" transform="translate(175.128 301.446)" fill="#00244d"/>
            <path id="Path_660" data-name="Path 660" d="M129.223,153.993a2.853,2.853,0,0,1-.157,4.031L98.091,186.678l68.928,74.487a2.845,2.845,0,0,1-.161,4.029l-9.967,9.226a2.851,2.851,0,0,1-4.031-.155L75.548,190.71c-2.142-2.309-7.79-8.325.622-16.111L94.1,158.008c13.148-12.163,30.4-9.116,32.541-6.807Z" transform="translate(67.305 139.942)" fill="#b2b2b1"/>
            <path id="Path_661" data-name="Path 661" d="M154.678,254.78l-3.594-3.693c-2.264-2.373-5.543-5.719-9.4-9.812s-8.387-8.829-13.162-13.984L113.56,211.147,98.746,194.866c-4.732-5.19-9.06-10.118-12.815-14.3s-6.807-7.737-8.978-10.2l-3.373-3.895s1.307,1.342,3.594,3.693c2.264,2.371,5.545,5.717,9.4,9.81s8.391,8.827,13.162,13.984S109.6,204.61,114.7,210.1c5.044,5.543,10.087,11.086,14.814,16.283s9.06,10.12,12.815,14.3,6.807,7.737,8.978,10.2c2.148,2.478,3.375,3.895,3.375,3.895" transform="translate(69.069 156.269)" fill="#6d6e70"/>
            <path id="Path_662" data-name="Path 662" d="M120.7,226.093l.145-3.645-3.641-.134.143-3.645-3.645-.142.143-3.643-3.647-.14.143-3.641-3.645-.142.145-3.645-3.641-.138.136-3.645-3.633-.14.215-5.624,3.5,3.782,1.906,2.063,1.594,1.72,1.91,2.067,1.592,1.714,1.9,2.067,1.6,1.72,1.9,2.061,1.6,1.722,1.908,2.059,1.592,1.726,1.908,2.061,3.5,3.78Z" transform="translate(93.596 185.648)" fill="#b2b2b1"/>
            <path id="Path_663" data-name="Path 663" d="M111.737,192.23l-.138,3.645,3.639.142-.143,3.641,3.649.142-.145,3.637,3.643.145-.136,3.641,3.635.14L125.6,211l3.645.14-.14,3.645,3.639.14-.211,5.632-3.507-3.786-1.906-2.063-1.6-1.72-1.9-2.061-1.6-1.722-1.91-2.063-1.588-1.718-1.912-2.063-1.592-1.724-1.908-2.061-1.594-1.72-1.906-2.063-3.505-3.784Z" transform="translate(99.604 180.242)" fill="#b2b2b1"/>
            <path id="Path_664" data-name="Path 664" d="M301.744,359.583,149.176,194.46h.006l-.027-.029-.991-1.066c-2.385-2.8-8.224-11.221-8.633-27l-3.172-3.4a2.9,2.9,0,0,0-4.058-.128L86.43,205.29a2.848,2.848,0,0,0-.161,4.027l16.2,17.508a2.856,2.856,0,0,0,4.031.157l20.851-19.294.134-.081,8.681,9.091-10.607,9.816a5.7,5.7,0,0,0-.306,8.055l1.933,2.1a15.839,15.839,0,0,0,9.569,4.4l21.52-.781c.149.008.264-.01.4-.012L285.891,374.251a8.557,8.557,0,0,0,12.086.471l3.29-3.059a8.546,8.546,0,0,0,.477-12.08" transform="translate(80.271 152.138)" fill="#a80b1a"/>
            <path id="Path_665" data-name="Path 665" d="M101.153,211.793a2.991,2.991,0,0,0,4.228.165L121.223,197.3a2.988,2.988,0,0,0,.163-4.236l-4.286-4.635a3,3,0,0,0-4.232-.167L97.024,202.923a2.986,2.986,0,0,0-.159,4.228Z" transform="translate(90.175 175.974)" fill="#4e4f50"/>
            <path id="Path_666" data-name="Path 666" d="M117.276,160.211l3.49.134.054-5.209a2.777,2.777,0,0,0-.694-1.654l-2.224-2.4a2.849,2.849,0,0,0-4.031-.157L82.925,179.555a2.852,2.852,0,0,0-.157,4.027l2.222,2.4a2.815,2.815,0,0,0,1.6.826l5.163.384.142-3.488,3.49.134.134-3.494,3.492.136.14-3.492,3.49.14.134-3.492,3.492.134.136-3.494,3.49.136.138-3.492,3.488.134.142-3.486,3.484.132Z" transform="translate(76.983 140.956)" fill="#d6d6d5"/>
            <path id="Path_667" data-name="Path 667" d="M125.6,164.92l-2.233-2.408a2.794,2.794,0,0,0-1.832-.874l-5.244-.316-.13,3.468-3.468-.136-.142,3.462-3.453-.13-.138,3.464-3.468-.13-.136,3.462-3.466-.132-.14,3.462-3.463-.13-.128,3.468-3.474-.138-.2,5.01a2.809,2.809,0,0,0,.708,2.259l2.222,2.4a2.852,2.852,0,0,0,4.029.157l23.991-22.2a2.851,2.851,0,0,0,.161-4.025" transform="translate(88.681 151.432)" fill="#d6d6d5"/>
            <path id="Path_668" data-name="Path 668" d="M265.756,352.47a4.313,4.313,0,0,0,6.336-5.855l-157.994-171a4.314,4.314,0,0,0-6.334,5.859Z" transform="translate(100.085 163.554)" fill="#9a0c19"/>
            <path id="Path_669" data-name="Path 669" d="M271.415,347.9,113.423,176.912a4.31,4.31,0,0,0-6.093-.233,4.742,4.742,0,0,0-.626.723,4.314,4.314,0,0,1,7.32-1.786l157.994,171a4.3,4.3,0,0,1,.384,5.361,4.314,4.314,0,0,0-.987-4.071" transform="translate(100.162 163.554)" fill="#870c16"/>
            <path id="Path_670" data-name="Path 670" d="M102.134,176.866,86.428,191.4a2.85,2.85,0,0,0-.159,4.027l16.2,17.508a2.819,2.819,0,0,0,2.175.882c-4.362-10.564-5.351-23.575-2.509-36.954" transform="translate(80.271 166.024)" fill="#a80b1a"/>
            <path id="Path_671" data-name="Path 671" d="M118.779,194.039s7.668,8.162,19.176,20.4c11.452,12.293,26.725,28.685,41.99,45.073,15.182,16.473,44.365,48.33,55.749,60.683,11.339,12.4,18.893,20.672,18.893,20.672s-7.671-8.164-19.178-20.4c-11.452-12.3-40.724-44.069-56-60.456-15.182-16.473-30.36-32.946-41.744-45.3-11.336-12.4-18.889-20.67-18.889-20.67" transform="translate(111.497 182.144)" fill="#9a0c19"/>
            <path id="Path_672" data-name="Path 672" d="M128.4,341.84h0a3.776,3.776,0,0,1-3.765-3.765v-14.4a3.765,3.765,0,0,1,7.53,0v14.4a3.776,3.776,0,0,1-3.765,3.765" transform="translate(116.997 300.295)" fill="#00244d"/>
            <path id="Path_673" data-name="Path 673" d="M191.129,320.365H159.387c-4.224,0-7.681,2.922-7.681,6.495v13.069c0,3.571,3.457,6.495,7.681,6.495h31.742c4.224,0,7.681-2.924,7.681-6.495V326.86c0-3.573-3.457-6.495-7.681-6.495m-4.637,14.4c0,2.666-2.579,4.847-5.731,4.847H169.755c-3.152,0-5.731-2.181-5.731-4.847v-2.735c0-2.666,2.578-4.847,5.731-4.847h11.006c3.152,0,5.731,2.181,5.731,4.847Z" transform="translate(142.406 300.725)" fill="#acacac"/>
            <path id="Path_674" data-name="Path 674" d="M192.287,320.3H160.545c-4.224,0-7.681,2.922-7.681,6.495V339.86c0,3.571,3.457,6.495,7.681,6.495h31.742c4.224,0,7.681-2.924,7.681-6.495V326.792c0-3.573-3.457-6.495-7.681-6.495m-4.637,14.4c0,2.666-2.579,4.847-5.731,4.847H170.913c-3.152,0-5.731-2.181-5.731-4.847v-2.736c0-2.666,2.578-4.847,5.731-4.847h11.006c3.152,0,5.731,2.181,5.731,4.847Z" transform="translate(143.493 300.662)" fill="#c7c9cb"/>
            <g id="Group_2499" data-name="Group 2499" transform="translate(367.098 314.968)" opacity="0.8">
              <g id="Group_2498" data-name="Group 2498">
                <g id="Group_2497" data-name="Group 2497" clip-path="url(#clip-path-7)">
                  <path id="Path_675" data-name="Path 675" d="M189.353,170.351s6.659,28.637,2.836,58.849c0,0,24.04,10.077,81.918-3.024,0,0,7.594-25.589-4.566-63.711,0,0-33.522,9.531-80.188,7.887" transform="translate(-189.353 -162.464)" fill="#fff"/>
                </g>
              </g>
            </g>
            <path id="Path_676" data-name="Path 676" d="M189.353,170.351c1.972,0,40.094,7.229,80.188-7.887Z" transform="translate(177.745 152.504)" fill="#2684b6"/>
            <path id="Path_677" data-name="Path 677" d="M270.949,162.319c1.491,5.143,2.677,10.329,3.709,15.562.258,1.307.514,2.613.725,3.93s.473,2.623.644,3.947l.564,3.961.442,3.978c.171,1.322.227,2.66.337,3.99s.207,2.664.229,4,.1,2.673.109,4.011l-.078,4.017c.008,1.34-.182,2.677-.264,4.017l-.163,2.007-.3,2c-.242,1.326-.339,2.673-.7,3.98l-.985,3.938v0l-.1.409-.547.244a82.44,82.44,0,0,1-9.868,3.565c-3.338,1.02-6.729,1.842-10.137,2.6l-5.139.989c-1.714.339-3.453.516-5.18.781s-3.462.465-5.2.613-3.478.345-5.225.423c-1.747.1-3.492.227-5.238.291l-5.25.037c-1.749.039-3.5-.052-5.25-.14-1.749-.1-3.5-.124-5.24-.333l-5.223-.56c-1.735-.219-3.462-.551-5.184-.857a46.754,46.754,0,0,1-5.132-1.093c-1.7-.427-3.381-.894-5.06-1.359h0l-.847-.233.074-.83a267.149,267.149,0,0,0,.948-29.9c-.1-2.491-.159-4.986-.349-7.47-.095-1.241-.136-2.489-.273-3.726l-.357-3.716-.475-3.7c-.143-1.235-.355-2.458-.576-3.68s-.384-2.454-.692-3.653l-.828-3.62,1.908-.5.849,3.7c.314,1.231.469,2.485.706,3.728s.44,2.489.585,3.744l.483,3.753.361,3.765c.14,1.254.182,2.513.277,3.769.192,2.511.252,5.027.353,7.541a269.111,269.111,0,0,1-.958,30.154l-.774-1.062h0l5.118.481c1.69.2,3.393.32,5.1.394s3.393.24,5.091.287l5.1.091c1.692.085,3.4-.015,5.093-.033,1.7-.058,3.393,0,5.089-.122l5.087-.25,5.081-.374c1.7-.1,3.385-.306,5.076-.485,1.689-.194,3.385-.31,5.07-.545q5.066-.6,10.132-1.3l5.068-.715,5.072-.762,10.159-1.58-.65.653.944-3.78c.347-1.25.44-2.567.673-3.848l.295-1.935.155-1.956c.079-1.307.268-2.6.26-3.918l.076-3.936c-.008-1.313-.074-2.627-.109-3.94-.018-1.314-.12-2.627-.223-3.939s-.165-2.627-.333-3.934l-.436-3.928-.556-3.914c-.169-1.307-.429-2.6-.638-3.9s-.461-2.6-.717-3.891c-1.02-5.171-2.2-10.333-3.664-15.378Z" transform="translate(177.283 152.368)" fill="#2684b6"/>
            <path id="Path_678" data-name="Path 678" d="M208.433,188.309l1.452-3.113h-.078a9.177,9.177,0,0,1-5.134,1.347l-4.478-.419,8.367-13.947-12.64-.184-.143,3h.078a5.774,5.774,0,0,1,3.889-1.053l3.9.351-9.038,15.61,13.825-1.1Z" transform="translate(182.678 161.449)" fill="#001f45" fill-rule="evenodd"/>
            <path id="Path_679" data-name="Path 679" d="M215.071,187.416l3.943-.072,0-.07c-1.376-.425-1.247-2.152-1.266-3.214l-.161-8.906c-.019-1.088-.211-2.809,1.148-3.282l-.027-.072-5.1.093,0,.072c1.349.425,1.219,2.152,1.239,3.214l.128,7.111a2.833,2.833,0,0,1-.523,2.16,5,5,0,0,1-3.887,1.724c-2.763.05-4.29-1.386-4.347-4.529l-.114-6.309c-.019-1.062-.211-2.784,1.121-3.257v-.07l-5.1.091,0,.072c1.376.423,1.219,2.152,1.239,3.214l.112,6.307c.031,1.7.006,3.286,1.452,4.63a7.1,7.1,0,0,0,4.886,1.566c1.877-.033,4.065-.64,5.221-2.032Z" transform="translate(189.739 161.268)" fill="#001f45"/>
            <path id="Path_680" data-name="Path 680" d="M211.649,171.019l0,.072c1.34.405,1.229,2.173,1.274,3.284l.366,9.094c.043,1.086.3,2.863-1.008,3.35l0,.072,4.953-.2,0-.074c-1.34-.38-1.256-2.148-1.3-3.257l-.434-10.806a14.411,14.411,0,0,1,1.757-.266c1.735-.142,3.383.807,3.453,2.544.091,2.268-2.284,3.257-4.349,3.631l2.522,3.3,2.668,2.873a3.525,3.525,0,0,0,3.057,1.084l2.387-.1a17.845,17.845,0,0,1-4.337-3.209l-3.267-3.573c2.107-.543,4.038-2.288,3.953-4.411-.089-2.195-2.051-3.808-5.525-3.668Z" transform="translate(198.674 160.294)" fill="#001f45"/>
            <path id="Path_681" data-name="Path 681" d="M222.563,174.4l9,10.112a6.892,6.892,0,0,0,3.769,2.6l-.481-13.437c-.049-1.342-.165-3.7,1.119-4.463l.016-.648-4.445.735,0,.072c1.359.671,1.45,3.026,1.5,4.368l.324,9.079-9.6-10.736-.37-.467a1.509,1.509,0,0,1-.4-.585V171l-3.672.13,0,.072c1.334.673,1.369,1.63,1.415,2.972l.343,9.558c.048,1.342.081,2.3-1.225,3.09l0,.072,4.451-.159,0-.072c-1.359-.694-1.369-1.654-1.417-3Z" transform="translate(205.878 158.228)" fill="#001f45"/>
            <path id="Path_682" data-name="Path 682" d="M193.691,187.155h0c22.437-4.794,64.533-3.375,70.41-9.335-9.232,4.031-61.212,4.992-70.408,9.335" transform="translate(181.815 166.919)" fill="#001f45" fill-rule="evenodd"/>
            <path id="Path_683" data-name="Path 683" d="M194.523,185.976h0c22.656-3.654,64.6-.1,70.791-5.76-9.436,3.559-61.377,1.886-70.79,5.76" transform="translate(182.596 169.168)" fill="#001f45" fill-rule="evenodd"/>
            <path id="Path_684" data-name="Path 684" d="M204.526,184.234c16.8-.527,50.4-.938,54.2-5.541-7.136,3.257-41.507,4.674-54.2,5.541" transform="translate(191.988 167.739)" fill="#001f45" fill-rule="evenodd"/>
            <path id="Path_685" data-name="Path 685" d="M194.787,186.844v.027c.5.18.436.838.436,1.243v3.4c0,.405.06,1.072-.446,1.233v.027h1.972v-.027c-.525-.269-.516-.63-.516-1.134v-4.064a4.576,4.576,0,0,1,.694-.052c.793,0,1.407.314,1.407,1.107,0,.865-.921,1.342-1.774,1.388a1.8,1.8,0,0,0,.723.126c1.121,0,2.181-.657,2.181-1.694,0-1.008-.981-1.576-2.27-1.576Z" transform="translate(182.836 175.39)" fill="#001f45"/>
            <path id="Path_686" data-name="Path 686" d="M200.112,191.724V187.8c0-.4-.07-1.072.436-1.243v-.027h-1.892v.027c.5.171.446.828.446,1.243v3.4c0,.4.058,1.07-.446,1.231v.027h4.073l.514-1.2h-.029a2.6,2.6,0,0,1-1.755.551Z" transform="translate(186.478 175.091)" fill="#001f45" fill-rule="evenodd"/>
            <path id="Path_687" data-name="Path 687" d="M207.31,192.408h1.456v-.029c-.5-.188-.446-.911-.446-1.357v-3.734c0-.456-.058-1.179.446-1.367l-.01-.031h-1.882v.031c.5.188.436.911.436,1.357v2.98a1.309,1.309,0,0,1-.207.9,1.755,1.755,0,0,1-1.448.694c-1.02,0-1.576-.615-1.576-1.931v-2.644c0-.446-.058-1.169.436-1.357v-.031h-1.883v.031c.506.188.436.911.436,1.357v2.644a2.591,2.591,0,0,0,.506,1.95,2.438,2.438,0,0,0,1.793.694,2.468,2.468,0,0,0,1.943-.812Z" transform="translate(190.21 174.494)" fill="#001f45"/>
            <path id="Path_688" data-name="Path 688" d="M211.582,190.273,209.8,185.9a1.181,1.181,0,0,1-.134-.446v-.01H208v.031c.436.246.332.644.295.921l-.543,4.153a2.1,2.1,0,0,1-.531,1.388v.029h1.549v-.029c-.448-.207-.38-.644-.3-1.249l.541-4.263,1.8,4.471a2.41,2.41,0,0,0,.836,1.2l2.129-5.68.541,4.777c0,.337-.056.636-.39.744v.029h1.834v-.029a1.192,1.192,0,0,1-.485-1.012l-.626-4.866c0-.227.066-.516.295-.584v-.031H213.3v.01a1.761,1.761,0,0,1-.144.615Z" transform="translate(194.519 174.077)" fill="#001f45"/>
            <path id="Path_689" data-name="Path 689" d="M213.548,190.136c0,.489.058,1.264-.436,1.466v.031h1.634a4.655,4.655,0,0,0,2.22-.33,2.138,2.138,0,0,0,1.19-1.857,1.9,1.9,0,0,0-1.617-1.881,1.473,1.473,0,0,0,.993-1.38c0-.946-.764-1.541-2.072-1.541h-2.348v.033c.5.2.436.977.436,1.454Zm1.01.648v-2.623l.694-.043a1.524,1.524,0,0,1,1.8,1.423,1.341,1.341,0,0,1-1.634,1.328Zm0-3.325v-2.082l.665-.074a1.063,1.063,0,0,1,1.227,1.051c0,.872-.921,1.105-1.565,1.105Z" transform="translate(200.048 173.325)" fill="#001f45" fill-rule="evenodd"/>
            <path id="Path_690" data-name="Path 690" d="M217.791,189c0,.413.06,1.093-.436,1.26v.027h1.882v-.027c-.494-.174-.436-.847-.436-1.26v-3.466c0-.415-.058-1.1.436-1.27v-.027h-1.882v.027c.506.174.436.847.436,1.27Z" transform="translate(204.03 172.944)" fill="#001f45"/>
            <path id="Path_691" data-name="Path 691" d="M221.255,184.816l3.4,4.525a2.768,2.768,0,0,0,1.448,1.187v-5.836c0-.584,0-1,.516-1.311v-.033h-1.745v.033c.525.31.516.727.516,1.311v3.941l-3.627-4.806-.14-.207a.665.665,0,0,1-.149-.26v-.012h-1.446v.033c.516.31.516.727.516,1.311v4.149c0,.584,0,1-.525,1.322v.031h1.755v-.031c-.525-.322-.516-.739-.516-1.322Z" transform="translate(206.528 172.108)" fill="#001f45"/>
            <path id="Path_692" data-name="Path 692" d="M230.047,182.489a7.054,7.054,0,0,0-1.468-.159c-2.262,0-3.86,1.25-3.86,3.257,0,1.875,1.411,3.181,3.8,3.181a12.1,12.1,0,0,0,2.233-.279,1.064,1.064,0,0,1-.046-.421v-2.146a1.111,1.111,0,0,1,.046-.4v-.027h-1.429v.027c.421.169.43.626.43,1.055v1.344a4.72,4.72,0,0,1-1.3.176,2.629,2.629,0,0,1-2.673-2.641A2.4,2.4,0,0,1,228.354,183a2.3,2.3,0,0,1,1.665.558h.027Z" transform="translate(210.943 171.153)" fill="#001f45"/>
            <path id="Path_693" data-name="Path 693" d="M203.3,190.681a5.567,5.567,0,0,0-1.477-.194c-1.208,0-2.487.423-2.487,1.53,0,1.865,3.41,1.619,3.41,2.991,0,.615-.853.915-1.417.915a3.7,3.7,0,0,1-2.171-.731l.289,1.1a5.733,5.733,0,0,0,1.774.264c1.545,0,2.654-.878,2.654-1.82,0-1.627-3.408-1.609-3.408-2.813,0-.607.713-.8,1.278-.8a2.408,2.408,0,0,1,1.557.554Z" transform="translate(186.95 178.809)" fill="#001f45"/>
            <path id="Path_694" data-name="Path 694" d="M204.415,193.677h.733c.308,0,.723-.01.882.258h.031v-.975h-.031a1.066,1.066,0,0,1-.436.056h-1.179v-1.71a6.12,6.12,0,0,1,1.01-.064,1.458,1.458,0,0,1,1.171.368h.029v-1.076H206.6a1.1,1.1,0,0,1-.467.047h-3.17v.027c.5.174.446.845.446,1.268v3.464c0,.413.058,1.093-.446,1.258v.027h4.131l.446-1.2h-.029a2.592,2.592,0,0,1-1.834.543l-1.258-.111Z" transform="translate(190.517 178.854)" fill="#001f45" fill-rule="evenodd"/>
            <path id="Path_695" data-name="Path 695" d="M206.643,190.174v.027c.506.171.436.828.436,1.243v3.4c0,.405.07,1.072-.436,1.233v.027h1.892v-.027c-.5-.161-.446-.818-.446-1.233V190.8a6.13,6.13,0,0,1,.675-.072,1.107,1.107,0,0,1,1.278,1c0,.847-.921,1.181-1.714,1.287l.911,1.27,1.21,1.361a1.36,1.36,0,0,0,1.15.45h.911a6.849,6.849,0,0,1-1.605-1.26l-1.427-1.63a1.83,1.83,0,0,0,1.576-1.586c0-.82-.723-1.45-2.051-1.45Z" transform="translate(193.975 178.516)" fill="#001f45"/>
            <path id="Path_696" data-name="Path 696" d="M213.49,195.157l-1.479-4.374a4.245,4.245,0,0,1-.252-.932l.01-.122h-1.359v.031a3.074,3.074,0,0,1,.725,1.439l1.406,4.11c.269.793.485.872,1.136,1.336l2.458-6.915h-1.388v.031c.578.252.262,1.074.01,1.789Z" transform="translate(197.51 178.098)" fill="#001f45"/>
            <path id="Path_697" data-name="Path 697" d="M215.161,194.439c0,.465.06,1.227-.436,1.413v.031h1.882v-.031c-.494-.2-.436-.948-.436-1.413v-3.891c0-.463-.058-1.227.436-1.423v-.031h-1.882v.031c.506.2.436.95.436,1.423Z" transform="translate(201.562 177.502)" fill="#001f45"/>
            <path id="Path_698" data-name="Path 698" d="M222.246,188.692a8.2,8.2,0,0,0-1.8-.238,3.22,3.22,0,0,0-3.48,3.272c0,2.034,1.448,3.29,3.786,3.29a3.669,3.669,0,0,0,1.5-.285l.506-1.1h-.031a4.513,4.513,0,0,1-2.109.6,2.535,2.535,0,0,1-2.518-2.644,2.227,2.227,0,0,1,2.319-2.34,3.539,3.539,0,0,1,1.834.543Z" transform="translate(203.662 176.901)" fill="#001f45" fill-rule="evenodd"/>
            <path id="Path_699" data-name="Path 699" d="M222.639,191.279h.733c.308,0,.723-.01.882.268h.031v-1.014h-.031a1.033,1.033,0,0,1-.436.058h-1.179v-1.778a5.719,5.719,0,0,1,1.01-.068,1.427,1.427,0,0,1,1.171.382h.029V188.01h-.029a1.068,1.068,0,0,1-.467.047h-3.17v.029c.5.182.446.88.446,1.32v3.6c0,.428.058,1.136-.446,1.309v.029h4.131l.446-1.252h-.029a2.536,2.536,0,0,1-1.834.564l-1.258-.114Z" transform="translate(207.624 176.484)" fill="#001f45" fill-rule="evenodd"/>
            <path id="Path_700" data-name="Path 700" d="M271.949,433.391,264,442.845l-.392,13.848,29.224,12.687.758-14.862,7.063-12.063Z" transform="translate(247.447 406.823)" fill="#464749"/>
            <path id="Path_701" data-name="Path 701" d="M271.759,433.391l-7.951,9.453,29.59,11.673,6.283-12.352Z" transform="translate(247.636 406.823)" fill="#818386"/>
            <path id="Path_702" data-name="Path 702" d="M285.722,437.917l.57,1.08-5.975,11.574-.663,13.5-.973,1.06.758-14.864Z" transform="translate(261.597 411.071)" fill="#3b3c3e"/>
            <path id="Path_703" data-name="Path 703" d="M264.846,439.2s-1.675,1.243.047,2.105l26.566,10.742s1.941-.872.51-2.278Z" transform="translate(247.924 412.276)" fill="#818386"/>
            <path id="Path_704" data-name="Path 704" d="M282.2,439.073a1.084,1.084,0,1,1-.933-1.1,1.026,1.026,0,0,1,.933,1.1" transform="translate(262.889 411.111)" fill="#3b3c3e"/>
            <path id="Path_705" data-name="Path 705" d="M276.085,437.147a1.084,1.084,0,1,1-.929-1.1,1.021,1.021,0,0,1,.929,1.1" transform="translate(257.152 409.304)" fill="#3b3c3e"/>
            <path id="Path_706" data-name="Path 706" d="M270.46,435.391a1.084,1.084,0,1,1-.932-1.1,1.023,1.023,0,0,1,.932,1.1" transform="translate(251.871 407.655)" fill="#3b3c3e"/>
            <path id="Path_707" data-name="Path 707" d="M203.932,405.24l-7.35,9.145-.083,13.16,28.024,11.438.407-14.131,6.454-11.607Z" transform="translate(184.453 380.397)" fill="#464749"/>
            <path id="Path_708" data-name="Path 708" d="M203.891,405.24l-7.35,9.145,28.348,10.467,6.454-11.607Z" transform="translate(184.493 380.397)" fill="#818386"/>
            <path id="Path_709" data-name="Path 709" d="M217.816,409.369l.248.993L212.2,421.244l-.349,12.834-.9,1.029.407-14.131Z" transform="translate(198.021 384.273)" fill="#3b3c3e"/>
            <path id="Path_710" data-name="Path 710" d="M197.535,410.829s-1.566,1.218.087,2l25.459,9.647s1.822-.87.432-2.171Z" transform="translate(184.795 385.644)" fill="#818386"/>
            <path id="Path_711" data-name="Path 711" d="M214.011,410.347a1.029,1.029,0,1,1-.905-1.026.968.968,0,0,1,.905,1.026" transform="translate(198.982 384.22)" fill="#3b3c3e"/>
            <path id="Path_712" data-name="Path 712" d="M208.169,408.647a1.031,1.031,0,1,1-.905-1.026.974.974,0,0,1,.905,1.026" transform="translate(193.494 382.624)" fill="#3b3c3e"/>
            <path id="Path_713" data-name="Path 713" d="M202.786,407.1a1.028,1.028,0,1,1-.9-1.027.966.966,0,0,1,.9,1.027" transform="translate(188.445 381.169)" fill="#3b3c3e"/>
            <path id="Path_714" data-name="Path 714" d="M218.459,566.83s-.859-10.312-6.016-11.171c0,0-9.738,2.578-12.317,6.875,0,0,1.146-10.312-1.431-10.884,0,0-12.46,2.433-16.471,4.3,0,0,5.872-7.734,5.013-11.745l-11.745,3.15,17.473,1.146s-3.15,12.6.285,11.458S205,553.368,205,553.368s5.155,6.3,4.3,10.884c0,0,8.592-7.16,13.749-6.875" transform="translate(164.736 510.841)" fill="none" stroke="#1a1a1a" stroke-linecap="round" stroke-linejoin="round" stroke-width="3"/>
            <g id="Group_2502" data-name="Group 2502" transform="translate(239.433 184.744)" opacity="0.13">
              <g id="Group_2501" data-name="Group 2501">
                <g id="Group_2500" data-name="Group 2500" clip-path="url(#clip-path-8)">
                  <path id="Path_715" data-name="Path 715" d="M124.187,95.293s-10.039,20.6,46.756,44.642c0,0,3.963-2.113,6.867-.529,0,0-48.867-18.755-53.622-44.113" transform="translate(-123.502 -95.293)" fill="#fff"/>
                </g>
              </g>
            </g>
            <g id="Group_2505" data-name="Group 2505" transform="translate(334.156 199.858)" opacity="0.13">
              <g id="Group_2504" data-name="Group 2504">
                <g id="Group_2503" data-name="Group 2503" clip-path="url(#clip-path-9)">
                  <path id="Path_716" data-name="Path 716" d="M172.361,128.126s12.415-19.548,14.265-20.868.527-3.433-.793-3.963,6.34,0,6.34,1.057-15.585,26.417-17.7,28,0-4.49-2.113-4.226" transform="translate(-172.361 -103.09)" fill="#fff"/>
                </g>
              </g>
            </g>
            <g id="Group_2508" data-name="Group 2508" transform="translate(479.416 468.182)" opacity="0.13">
              <g id="Group_2507" data-name="Group 2507">
                <g id="Group_2506" data-name="Group 2506" clip-path="url(#clip-path-10)">
                  <path id="Path_717" data-name="Path 717" d="M250.613,279.4c-22.134.851,72.907-15.19,87.567-37.905,0,0-15.453,35.131-87.567,37.905" transform="translate(-247.289 -241.493)" fill="#fff"/>
                </g>
              </g>
            </g>
            <g id="Group_2511" data-name="Group 2511" transform="translate(101.436 227.537)" opacity="0.13">
              <g id="Group_2510" data-name="Group 2510">
                <g id="Group_2509" data-name="Group 2509" clip-path="url(#clip-path-11)">
                  <path id="Path_718" data-name="Path 718" d="M167.492,117.366s-98.265,2.113-115.17,15.849c0,0,134.189-2.113,115.17-15.849" transform="translate(-52.322 -117.366)" fill="#fff"/>
                </g>
              </g>
            </g>
            <g id="Group_2514" data-name="Group 2514" transform="translate(384.967 223.838)" opacity="0.13">
              <g id="Group_2513" data-name="Group 2513">
                <g id="Group_2512" data-name="Group 2512" clip-path="url(#clip-path-12)">
                  <path id="Path_719" data-name="Path 719" d="M199.268,115.459s65.511-.527,108.831,18.491-121.51-14.265-108.831-18.491" transform="translate(-198.57 -115.459)" fill="#fff"/>
                </g>
              </g>
            </g>
            <g id="Group_2517" data-name="Group 2517" transform="translate(452.125 704.018)" opacity="0.13">
              <g id="Group_2516" data-name="Group 2516">
                <g id="Group_2515" data-name="Group 2515" clip-path="url(#clip-path-13)">
                  <path id="Path_720" data-name="Path 720" d="M256.3,364.777c-.147-.048-.469-.151-.934-.264-3.792-.915-16.936-3.15-18.348,1.32-1.586,5.019-5.285,9.773-3.172,10.3s5.285-8.453,8.718-8.189,26.678,1.057,13.736-3.17" transform="translate(-233.212 -363.14)" fill="#fff"/>
                </g>
              </g>
            </g>
            <g id="Group_2520" data-name="Group 2520" transform="translate(560.799 739.202)" opacity="0.13">
              <g id="Group_2519" data-name="Group 2519">
                <g id="Group_2518" data-name="Group 2518" clip-path="url(#clip-path-14)">
                  <path id="Path_721" data-name="Path 721" d="M289.266,381.288s7.133,1.85,8.716,4.226,5.549,11.1,1.85,16.112,5.812-10.829-10.566-20.339" transform="translate(-289.266 -381.288)" fill="#fff"/>
                </g>
              </g>
            </g>
            <path id="Path_722" data-name="Path 722" d="M147.7,552.3c-9.511-.5-26.415,3.7-33.284,21.661,0,0,6.34,4.754,25.358,3.7,0,0,2.511-18.755,14.794-21.659,4.424-.727,3.17-3.7-6.869-3.7" transform="translate(107.398 518.41)" fill="#3f3f41"/>
            <path id="Path_723" data-name="Path 723" d="M223.1,232.521l12.985-16.145s-37.543-12.289-31.977,28.4a36.193,36.193,0,0,1-17.974,35.556c-67.628,38.97-93.2,1.826-154.72,35.939.934,2.648,2.447,7.437,4.67,10.314,28.419,36.8,47.31,87.383,52.583,102.483,17.115-6.656,48.56-23.355,78.542-62.893,44.165-58.24,84.037-57.984,84.037-57.984,15.095-1.342,30.207-5.905,43.425-29.736,2.167-4.734,7.35-16.626,7.251-21.965-.124-6.751-5.663-7.681-5.663-7.681.206,9.647-4.25,14.253-4.25,14.253s6.477-7.867,2.646-19.625-12.156-12.679-12.156-12.679a42.219,42.219,0,0,1-8.825,18.158c2.387-3.176,7.394-22.241,3.2-30.052a13.115,13.115,0,0,0-12.134-7.105c-2.03,8.54-11.871,19.261-11.871,19.261,3.936-4.443,8.658-22.712,1-26.835s-16.5,5.2-16.5,5.2l-.058-.209a48.8,48.8,0,0,0-2.332,5.017" transform="translate(29.494 190.683)" fill="#e8b796"/>
            <path id="Path_724" data-name="Path 724" d="M142.98,223.951s.085.184.242.527.432.884.785,1.545.8,1.458,1.369,2.309a20.525,20.525,0,0,0,2,2.629,6.087,6.087,0,0,0,2.27,1.71.628.628,0,0,1,.188.054l.025.012.012.006.006,0c-.233-.012.324.019.275.017l.151.023.3.048c.217.037.38.05.646.109l.9.244c.287.087.636.182.865.279l.688.295a11.839,11.839,0,0,1,1.338.64,47.66,47.66,0,0,1,9.368,6.776,52.025,52.025,0,0,1,7.642,8.439c.547.733,1,1.543,1.475,2.3a18.933,18.933,0,0,0,1.27,1.919,15.331,15.331,0,0,0,2.912,2.966,18.967,18.967,0,0,0,5.626,3.042,16.939,16.939,0,0,0,1.739.5c.409.1.6.124.6.124l-.165,1.576s-.277-.017-.729-.083a18.751,18.751,0,0,1-1.95-.386,21.085,21.085,0,0,1-6.516-2.831,17.916,17.916,0,0,1-3.7-3.181,21.7,21.7,0,0,1-1.638-2.074c-.481-.634-.927-1.3-1.487-1.923a48.484,48.484,0,0,0-7.741-7.181,43.349,43.349,0,0,0-8.883-5.349,7.642,7.642,0,0,0-1.055-.4l-.508-.171c-.169-.056-.238-.045-.357-.078s-.207-.052-.31-.085c-.142-.027-.4-.033-.587-.05l-.306-.019-.153-.012.235.014-.031,0-.064,0-.128-.008c-.339-.023-.679-.056-1.014-.1a9.572,9.572,0,0,1-1.776-.508c-.481-.238-.993-.475-1.415-.741a16.486,16.486,0,0,1-2.179-1.658,26.3,26.3,0,0,1-2.935-3.212c-.785-.987-1.382-1.879-1.879-2.615s-.849-1.336-1.093-1.756l-.378-.663Z" transform="translate(128.539 210.222)" fill="#daa17e"/>
            <path id="Path_725" data-name="Path 725" d="M139.177,223.129s-11.229,4.719-12.821,4.149,11.675-10.783,17.694-15.114Z" transform="translate(118.487 199.158)" fill="#ba7a56"/>
            <path id="Path_726" data-name="Path 726" d="M197.208,247.715c1.208-5.089-4.542-16.438-13.439-17.782,1.66-5.366-8.214-20.381-18.6-17.088,2.724-5.533-15.343-23.863-27.547-1.268l.058.209s8.837-9.323,16.5-5.2,2.937,22.392-1,26.832c0,0,9.841-10.717,11.869-19.259a13.122,13.122,0,0,1,12.136,7.107c4.191,7.811-.816,26.874-3.2,30.052a42.235,42.235,0,0,0,8.825-18.158s8.323.921,12.156,12.677-2.646,19.625-2.646,19.625,4.453-4.6,4.25-14.253c0,0,5.537.932,5.663,7.681.1,5.341-5.083,17.231-7.253,21.965a141.5,141.5,0,0,0,9.434-21.448c1.276-6.991-7.206-11.694-7.206-11.694" transform="translate(129.189 188.284)" fill="#daa17e"/>
            <path id="Path_727" data-name="Path 727" d="M159.566,206.968c-.2.636,1.078,7.792-14.847,24.189l-.987-1.241c10.1-8.032,15.6-22.84,15.651-22.991Z" transform="translate(134.922 194.24)" fill="#daa17e"/>
            <path id="Path_728" data-name="Path 728" d="M166.542,215.791c-.207.745-2.245,16.12-9.42,22.09l-.95-1.27c3.654-2.735,8.771-15.985,10.153-20.919Z" transform="translate(146.598 202.469)" fill="#daa17e"/>
            <path id="Path_729" data-name="Path 729" d="M171.3,225.654c-.047.6,1.836,11.667-4.74,18.573l-1.08-1.161c3.05-2.838,4.827-14.24,5.711-18.974Z" transform="translate(155.336 210.353)" fill="#daa17e"/>
            <path id="Path_730" data-name="Path 730" d="M111.15,297.61a.82.82,0,0,1-.268,1.126c-14.829,9.137-31.143-9.538-31.306-9.728a.819.819,0,1,1,1.241-1.068c.155.18,15.568,17.807,29.206,9.4a.819.819,0,0,1,1.126.268" transform="translate(74.511 270.021)" fill="#ba7a56"/>
            <path id="Path_731" data-name="Path 731" d="M112.018,301.563a.82.82,0,0,1-.237,1.105c-19.8,13.509-38.741-9.31-38.931-9.542a.82.82,0,0,1,1.272-1.035,45.412,45.412,0,0,0,11.448,9.484c9.025,5.12,17.532,5.033,25.288-.26a.819.819,0,0,1,1.138.215l.021.033" transform="translate(68.21 273.902)" fill="#ba7a56"/>
            <path id="Path_732" data-name="Path 732" d="M105.792,305.851a.818.818,0,0,1-.209,1.086c-10.436,7.753-34.612-6.789-35.635-7.412a.819.819,0,1,1,.851-1.4c.24.147,24.253,14.6,33.809,7.5a.818.818,0,0,1,1.144.169.647.647,0,0,1,.041.06" transform="translate(65.291 279.738)" fill="#ba7a56"/>
            <path id="Path_733" data-name="Path 733" d="M97.443,307.97a.715.715,0,0,1,.05.093.82.82,0,0,1-.411,1.084c-11.851,5.328-24.951-4.347-25.5-4.761a.818.818,0,0,1,.983-1.309c.128.095,12.887,9.505,23.848,4.577a.82.82,0,0,1,1.033.316" transform="translate(66.885 284.342)" fill="#ba7a56"/>
            <path id="Path_734" data-name="Path 734" d="M92.487,310.465a.737.737,0,0,1,.041.076.817.817,0,0,1-.384,1.093c-9.744,4.674-20.841-3.794-21.308-4.157a.819.819,0,1,1,1-1.3c.107.083,10.771,8.21,19.6,3.974a.819.819,0,0,1,1.051.308" transform="translate(66.193 287.251)" fill="#ba7a56"/>
            <path id="Path_735" data-name="Path 735" d="M131.911,371.77s-26.8,23.148-86.5,15.229S11.3,338.268,13.129,326.085s3.654-43.859,65.179-68.223,46.9,65.786,46.9,65.786-7.311,42.031,6.7,48.122" transform="translate(5.754 238.132)" fill="#e8b796"/>
            <path id="Path_736" data-name="Path 736" d="M132.182,256.275S38.375,266.021,13.4,345.818l-1.218,7.92S0,353.737,0,335.463s11.574-26.194,14.009-35.94S31.066,271.5,45.685,267.24s41.42-31.068,86.5-10.965" transform="translate(0 233.625)" fill="#2684b6"/>
            <path id="Path_737" data-name="Path 737" d="M139.141,222.576l-9.124-9.321,1.892-7.675,9.946,5.987s-.721,4.131-2.714,11.01" transform="translate(122.047 192.976)" fill="#a80b1a"/>
          </g>
        </g>
      </g>
    </g>
  </g>
</svg>
