<svg xmlns="http://www.w3.org/2000/svg" xmlns:xlink="http://www.w3.org/1999/xlink" width="102" height="102" viewBox="0 0 102 102">
  <defs>
    <clipPath id="clip-path">
      <rect id="Rectangle_287" data-name="Rectangle 287" width="102" height="102" transform="translate(-0.009 -0.009)" fill="#4ca1bf" stroke="#4ca1bf" stroke-width="1"/>
    </clipPath>
  </defs>
  <g id="Group_2542" data-name="Group 2542" transform="translate(0.009 0.009)">
    <g id="Group_2541" data-name="Group 2541" clip-path="url(#clip-path)">
      <path id="Path_760" data-name="Path 760" d="M36.092,70.706A2.2,2.2,0,0,1,33.9,68.513v-.468a1.072,1.072,0,0,0-.753-1.023,8.782,8.782,0,0,1-5.631-5.184,2.192,2.192,0,1,1,4.1-1.545,4.906,4.906,0,0,0,7.5,1.556,3.841,3.841,0,0,0,1.311-2.864c0-2.372-3.219-3.993-5.137-4.748-6.887-2.71-7.916-6.694-7.916-8.827A8.192,8.192,0,0,1,30.123,39.3a9.006,9.006,0,0,1,3.064-1.788A1.068,1.068,0,0,0,33.9,36.5v-.617a2.193,2.193,0,0,1,4.385,0v.468a1.072,1.072,0,0,0,.753,1.023,8.782,8.782,0,0,1,5.631,5.184,2.192,2.192,0,1,1-4.1,1.545,4.9,4.9,0,0,0-7.5-1.556,3.841,3.841,0,0,0-1.311,2.864c0,2.372,3.219,3.993,5.137,4.748,6.887,2.71,7.916,6.694,7.916,8.827A8.188,8.188,0,0,1,42.06,65.1,8.984,8.984,0,0,1,39,66.887a1.068,1.068,0,0,0-.713,1.009v.617a2.2,2.2,0,0,1-2.193,2.193" transform="translate(15.046 18.518)" fill="#4ca1bf" stroke="#4ca1bf" stroke-width="1"/>
      <path id="Path_761" data-name="Path 761" d="M2.191,88.387A2.193,2.193,0,0,1,0,86.195V27.459a2.193,2.193,0,0,1,2.191-2.19h97.892a2.194,2.194,0,0,1,2.193,2.19V86.195a2.195,2.195,0,0,1-2.193,2.193Zm94.629-15.9a1.121,1.121,0,0,0-.267.033A14.135,14.135,0,0,0,86.408,82.663,1.07,1.07,0,0,0,87.445,84H96.82a1.071,1.071,0,0,0,1.071-1.072V73.557a1.067,1.067,0,0,0-1.071-1.071M64.53,29.651a1.071,1.071,0,0,0-.49,2.024,28.246,28.246,0,0,1,0,50.306A1.071,1.071,0,0,0,64.53,84H80.8a1.073,1.073,0,0,0,1.057-.893A18.489,18.489,0,0,1,97,67.968a1.07,1.07,0,0,0,.893-1.055V46.742A1.071,1.071,0,0,0,97,45.687,18.489,18.489,0,0,1,81.857,30.546a1.072,1.072,0,0,0-1.057-.894Zm-43.055,0a1.07,1.07,0,0,0-1.055.894A18.491,18.491,0,0,1,5.277,45.687a1.071,1.071,0,0,0-.893,1.055v20.17a1.07,1.07,0,0,0,.893,1.055A18.491,18.491,0,0,1,20.42,83.111,1.07,1.07,0,0,0,21.475,84h16.27a1.07,1.07,0,0,0,.49-2.022,28.247,28.247,0,0,1,0-50.306,1.071,1.071,0,0,0-.49-2.024ZM5.455,72.486a1.069,1.069,0,0,0-1.071,1.071v9.374A1.071,1.071,0,0,0,5.455,84h9.377a1.072,1.072,0,0,0,1.037-1.34A14.137,14.137,0,0,0,5.723,72.519a1.124,1.124,0,0,0-.268-.033M51.138,32.915A23.912,23.912,0,1,0,75.051,56.829,23.939,23.939,0,0,0,51.138,32.915m36.306-3.264a1.071,1.071,0,0,0-1.037,1.339A14.125,14.125,0,0,0,96.553,41.134a1.048,1.048,0,0,0,.267.034A1.067,1.067,0,0,0,97.891,40.1V30.722a1.07,1.07,0,0,0-1.071-1.071Zm-81.99,0a1.07,1.07,0,0,0-1.071,1.071V40.1a1.069,1.069,0,0,0,1.071,1.069,1.051,1.051,0,0,0,.268-.034A14.127,14.127,0,0,0,15.868,30.99a1.073,1.073,0,0,0-1.037-1.339Z" transform="translate(0 13.889)" fill="#4ca1bf" stroke="#4ca1bf" stroke-width="1"/>
      <path id="Path_762" data-name="Path 762" d="M33.319,26.809a2.192,2.192,0,0,1-1.79-3.451,27.354,27.354,0,0,1,3.93-4.478,1.071,1.071,0,0,0-.722-1.861H5.455a1.07,1.07,0,0,0-1.071,1.071v6.526a2.192,2.192,0,1,1-4.384,0V14.825a2.194,2.194,0,0,1,2.191-2.191h97.892a2.2,2.2,0,0,1,2.193,2.191v9.789a2.193,2.193,0,0,1-4.385,0V18.089a1.07,1.07,0,0,0-1.071-1.071H67.539a1.07,1.07,0,0,0-.722,1.861,27.4,27.4,0,0,1,3.928,4.477,2.191,2.191,0,0,1-1.79,3.451,2.2,2.2,0,0,1-1.8-.934c-3.953-5.627-9.792-8.855-16.02-8.855s-12.069,3.228-16.022,8.855a2.2,2.2,0,0,1-1.8.936" transform="translate(0 6.944)" fill="#4ca1bf" stroke="#4ca1bf" stroke-width="1"/>
      <path id="Path_763" data-name="Path 763" d="M33.319,14.175a2.192,2.192,0,0,1-1.79-3.451,27.354,27.354,0,0,1,3.93-4.478,1.071,1.071,0,0,0-.722-1.861H5.455A1.07,1.07,0,0,0,4.384,5.455V11.98A2.192,2.192,0,1,1,0,11.98V2.191A2.193,2.193,0,0,1,2.191,0h97.892a2.194,2.194,0,0,1,2.193,2.191V11.98a2.193,2.193,0,0,1-4.385,0V5.455A1.07,1.07,0,0,0,96.82,4.384H67.539a1.07,1.07,0,0,0-.722,1.861,27.4,27.4,0,0,1,3.928,4.477,2.191,2.191,0,0,1-1.79,3.451,2.2,2.2,0,0,1-1.8-.934c-3.953-5.627-9.792-8.855-16.02-8.855S39.069,7.612,35.116,13.239a2.2,2.2,0,0,1-1.8.936" fill="#4ca1bf" stroke="#4ca1bf" stroke-width="1"/>
    </g>
  </g>
</svg>
