<svg xmlns="http://www.w3.org/2000/svg" xmlns:xlink="http://www.w3.org/1999/xlink" width="101" height="106.519" viewBox="0 0 101 106.519">
  <defs>
    <clipPath id="clip-path">
      <rect id="Rectangle_283" data-name="Rectangle 283" width="101" height="106.519" fill="none" stroke="#4ca1bf" stroke-width="6"/>
    </clipPath>
  </defs>
  <g id="Group_2536" data-name="Group 2536" transform="translate(0 0)">
    <g id="Group_2535" data-name="Group 2535" transform="translate(0 0)" clip-path="url(#clip-path)">
      <path id="Path_744" data-name="Path 744" d="M2.316,11.241V67.726H83.577V11.241" transform="translate(7.554 36.66)" fill="none" stroke="#4ca1bf" stroke-linejoin="round" stroke-width="6"/>
      <path id="Path_745" data-name="Path 745" d="M39.466,23.944H.5V7.346H97.243v16.6H58.276" transform="translate(1.63 23.957)" fill="none" stroke="#4ca1bf" stroke-linejoin="round" stroke-width="6"/>
      <path id="Path_746" data-name="Path 746" d="M13.713,74.093V9.294" transform="translate(44.723 30.31)" fill="none" stroke="#4ca1bf" stroke-linejoin="round" stroke-width="6"/>
      <path id="Path_747" data-name="Path 747" d="M9.989,9.294v64.8" transform="translate(32.577 30.309)" fill="none" stroke="#4ca1bf" stroke-linejoin="round" stroke-width="6"/>
      <path id="Path_748" data-name="Path 748" d="M25.028,10.166a9.356,9.356,0,0,1-4.96-6.183A9.329,9.329,0,0,0,6.542,12.369a9.224,9.224,0,0,0,9.52,9.256H42.534a9.162,9.162,0,0,0,9.256-9.256A9.329,9.329,0,0,0,38.264,3.982" transform="translate(21.336 9.734)" fill="none" stroke="#4ca1bf" stroke-linejoin="round" stroke-width="6"/>
      <path id="Path_749" data-name="Path 749" d="M23.174,18.27a9.366,9.366,0,0,1,4.96-6.183,9.375,9.375,0,1,0-18.486-2.2,9.154,9.154,0,0,0,.29,2.2" transform="translate(31.466 1.629)" fill="none" stroke="#4ca1bf" stroke-linejoin="round" stroke-width="6"/>
    </g>
  </g>
</svg>
