<svg xmlns="http://www.w3.org/2000/svg" xmlns:xlink="http://www.w3.org/1999/xlink" width="98" height="106" viewBox="0 0 98 106">
  <defs>
    <clipPath id="clip-path">
      <rect id="Rectangle_285" data-name="Rectangle 285" width="98" height="106" transform="translate(0 0)" fill="none" stroke="#4ca1bf" stroke-width="5"/>
    </clipPath>
  </defs>
  <g id="Group_2538" data-name="Group 2538" transform="translate(0 -0.002)">
    <g id="Group_2537" data-name="Group 2537" transform="translate(0 0.002)" clip-path="url(#clip-path)">
      <path id="Path_750" data-name="Path 750" d="M15.687,15a5.187,5.187,0,1,0,0,10.374c0,7.071,9.289,22.822,20.748,22.822S57.182,32.445,57.182,25.374a5.187,5.187,0,1,0,0-10.374" transform="translate(11.285 16.113)" fill="none" stroke="#4ca1bf" stroke-linecap="round" stroke-linejoin="round" stroke-width="5"/>
      <path id="Path_751" data-name="Path 751" d="M27.972,33,25.9,33A24.9,24.9,0,0,0,1,57.9V68.271H92.289V57.9A24.9,24.9,0,0,0,67.392,33H65.317" transform="translate(1.075 35.458)" fill="none" stroke="#4ca1bf" stroke-linecap="round" stroke-linejoin="round" stroke-width="5"/>
      <path id="Path_752" data-name="Path 752" d="M14,37.3h0A8.3,8.3,0,0,0,22.3,29" transform="translate(15.047 31.159)" fill="none" stroke="#4ca1bf" stroke-linecap="round" stroke-linejoin="round" stroke-width="5"/>
      <path id="Path_753" data-name="Path 753" d="M36.3,37.3h0A8.3,8.3,0,0,1,28,29" transform="translate(30.093 31.159)" fill="none" stroke="#4ca1bf" stroke-linecap="round" stroke-linejoin="round" stroke-width="5"/>
      <path id="Path_754" data-name="Path 754" d="M57.645,21.748V17.6A16.647,16.647,0,0,0,41.047,1H28.6A16.6,16.6,0,0,0,12,17.6v4.15Z" transform="translate(12.897 1.066)" fill="none" stroke="#4ca1bf" stroke-linecap="round" stroke-linejoin="round" stroke-width="5"/>
      <path id="Path_755" data-name="Path 755" d="M12,11c0,15.648,9.056,8.3,22.822,8.3S57.645,26.648,57.645,11" transform="translate(12.897 11.814)" fill="none" stroke="#4ca1bf" stroke-linecap="round" stroke-linejoin="round" stroke-width="5"/>
      <line id="Line_79" data-name="Line 79" x2="11" transform="translate(65 93)" fill="none" stroke="#4ca1bf" stroke-linecap="round" stroke-linejoin="round" stroke-width="5"/>
      <path id="Path_756" data-name="Path 756" d="M15,48.6,19.15,32,31.6,44.449,44.047,32,48.2,48.6l-16.6-4.15Z" transform="translate(16.121 34.384)" fill="none" stroke="#4ca1bf" stroke-linecap="round" stroke-linejoin="round" stroke-width="5"/>
      <line id="Line_80" data-name="Line 80" y2="26" transform="translate(48 79)" fill="none" stroke="#4ca1bf" stroke-linecap="round" stroke-linejoin="round" stroke-width="5"/>
      <rect id="Rectangle_284" data-name="Rectangle 284" width="9" height="9" rx="1.414" transform="translate(44 8)" fill="none" stroke="#4ca1bf" stroke-linecap="round" stroke-linejoin="round" stroke-width="5"/>
    </g>
  </g>
</svg>
