<svg id="Group_703" data-name="Group 703" xmlns="http://www.w3.org/2000/svg" xmlns:xlink="http://www.w3.org/1999/xlink" width="51" height="45.44" viewBox="0 0 51 45.44">
  <defs>
    <clipPath id="clip-path">
      <rect id="Rectangle_243" data-name="Rectangle 243" width="51" height="45.44" fill="#4ca1bf"/>
    </clipPath>
  </defs>
  <g id="Group_678" data-name="Group 678" transform="translate(0 0)">
    <g id="Group_663" data-name="Group 663" clip-path="url(#clip-path)">
      <path id="Path_540" data-name="Path 540" d="M49.264,18.514a35.656,35.656,0,0,1-5.833-6.631,29.555,29.555,0,0,1-2.513-7.541A5.571,5.571,0,0,0,33.753.273a27.791,27.791,0,0,1-8.268,1.453A27.789,27.789,0,0,1,17.245.283,5.566,5.566,0,0,0,10.08,4.351a28.418,28.418,0,0,1-2.5,7.467A35.283,35.283,0,0,1,1.73,18.5,5.561,5.561,0,0,0,1.9,26.72a27.654,27.654,0,0,1,5.289,5.672,38.444,38.444,0,0,1,2.824,8.763,5.579,5.579,0,0,0,7.116,4.023,30.1,30.1,0,0,1,8.357-1.6,30.083,30.083,0,0,1,8.351,1.6,5.565,5.565,0,0,0,7.108-3.992,34.852,34.852,0,0,1,2.922-8.514,27.829,27.829,0,0,1,5.3-5.981,5.57,5.57,0,0,0,.1-8.175m-9.209-4.682a36.323,36.323,0,0,0,6.087,7.089H37.313A11.938,11.938,0,0,0,32.9,13.277l4.348-7.531a31.36,31.36,0,0,0,2.809,8.085M25.485,5.624a30.892,30.892,0,0,0,8.629-1.381l-4.214,7.3a11.954,11.954,0,0,0-8.829,0l-4.217-7.3a30.186,30.186,0,0,0,8.632,1.386M10.951,13.768a30.329,30.329,0,0,0,2.8-7.981l4.324,7.49a11.94,11.94,0,0,0-4.415,7.643H4.838a36.248,36.248,0,0,0,6.113-7.153m-.387,16.675a28.124,28.124,0,0,0-5.429-6.058h8.522a11.939,11.939,0,0,0,4.416,7.643l-4.409,7.636a38.343,38.343,0,0,0-3.1-9.221m14.921,9.239a31.2,31.2,0,0,0-8.716,1.531l4.3-7.45a11.952,11.952,0,0,0,8.828,0l4.3,7.446a32.273,32.273,0,0,0-8.713-1.527M40.49,30.721A36.272,36.272,0,0,0,37.3,39.659L32.9,32.028a11.939,11.939,0,0,0,4.415-7.643h8.6a29.421,29.421,0,0,0-5.426,6.336" transform="translate(0 0)" fill="#4ca1bf"/>
    </g>
  </g>
  <g id="Forward_Arrow" data-name="Forward Arrow" transform="translate(18.319 15.539)">
    <path id="Path_10" data-name="Path 10" d="M7.181,0,5.875,1.306l4.943,4.943H0V8.113H10.818L5.875,13.056l1.306,1.306,7.181-7.181Z" fill="#fff"/>
  </g>
</svg>
