<svg id="Group_2540" data-name="Group 2540" xmlns="http://www.w3.org/2000/svg" xmlns:xlink="http://www.w3.org/1999/xlink" width="91.823" height="98.078" viewBox="0 0 91.823 98.078">
  <defs>
    <clipPath id="clip-path">
      <rect id="Rectangle_286" data-name="Rectangle 286" width="91.823" height="98.078" fill="#4ca1bf" stroke="#4ca1bf" stroke-width="1"/>
    </clipPath>
  </defs>
  <g id="Group_2539" data-name="Group 2539" clip-path="url(#clip-path)">
    <path id="Path_757" data-name="Path 757" d="M52.4,87.841a3.694,3.694,0,0,1-1.149-.186C24.983,79.048,24.818,43.565,25.393,32.894a4.185,4.185,0,0,1,1.357-2.871,3.741,3.741,0,0,1,2.529-.975c.068,0,.138,0,.207.006.505.028,1.018.043,1.523.043a29.917,29.917,0,0,0,18.953-7.134,3.747,3.747,0,0,1,4.879,0A29.893,29.893,0,0,0,73.746,29.1c.525,0,1.057-.016,1.581-.046.049,0,.11,0,.171,0a3.787,3.787,0,0,1,2.562.975,4.169,4.169,0,0,1,1.354,2.867c.577,10.671.416,46.158-25.861,54.763a3.735,3.735,0,0,1-1.152.186M30.564,33.3a1.025,1.025,0,0,0-1.025.988c-.355,9.577.223,41.432,22.525,49.205a1.015,1.015,0,0,0,.676,0c22.31-7.77,22.883-39.627,22.527-49.205a1.027,1.027,0,0,0-1.025-.988h-.288a34.186,34.186,0,0,1-20.916-7.383,1.027,1.027,0,0,0-1.271,0A33.685,33.685,0,0,1,31.3,33.307c-.235,0-.47,0-.707-.009h-.024" transform="translate(12.278 10.235)" fill="#4ca1bf" stroke="#4ca1bf" stroke-width="1"/>
    <path id="Path_758" data-name="Path 758" d="M20.576,98.078a7.758,7.758,0,0,1-6.717-3.926A60.035,60.035,0,0,1,5.876,60.391,43.131,43.131,0,0,1,6.812,54.4a25.669,25.669,0,0,0,.825-7.931c-.406-3.532-1.773-6.6-3.219-9.852A54.651,54.651,0,0,1,1.6,29.346C-.05,23.6-1.645,15.147,3.5,8.166A20.835,20.835,0,0,1,19.161.059C19.849.019,20.559,0,21.267,0A53.069,53.069,0,0,1,38.427,3.241l.97.345a11.977,11.977,0,0,0,3.451.895c.01,0,.062,0,.077,0a11.6,11.6,0,0,0,3.048-.874c.389-.146.774-.288,1.156-.421A53.617,53.617,0,0,1,64.3,0c.7,0,1.4.021,2.083.059a20.841,20.841,0,0,1,15.672,8.1c5.143,6.983,3.549,15.432,1.9,21.182-.147.517-.311,1.039-.5,1.6a2.1,2.1,0,1,1-3.978-1.36c.16-.47.309-.938.44-1.392,2.259-7.892,1.875-13.3-1.245-17.532a16.646,16.646,0,0,0-12.538-6.4C65.53,4.222,64.91,4.2,64.289,4.2a49.43,49.43,0,0,0-15.8,2.962l-1.042.377A14.705,14.705,0,0,1,42.88,8.681a15.508,15.508,0,0,1-4.916-1.144l-.887-.314A49.757,49.757,0,0,0,21.225,4.2c-.614,0-1.224.018-1.814.053a16.631,16.631,0,0,0-12.529,6.4C3.761,14.9,3.378,20.3,5.638,28.189A50.756,50.756,0,0,0,8.252,34.9c1.519,3.41,3.084,6.923,3.562,11.1a29.077,29.077,0,0,1-.875,9.218,39.427,39.427,0,0,0-.866,5.44,56.568,56.568,0,0,0,7.412,31.375A3.52,3.52,0,0,0,20.6,93.871a3.69,3.69,0,0,0,.493-.033,3.632,3.632,0,0,0,3.048-2.76l.349-1.294a111.216,111.216,0,0,1,4.873-15.175c.819-1.9,1.485-3.329,2.158-4.623a2.1,2.1,0,0,1,1.865-1.134,2.052,2.052,0,0,1,.969.241,2.1,2.1,0,0,1,.895,2.835c-.805,1.547-1.5,3.133-2.024,4.342a108.2,108.2,0,0,0-4.674,14.594L28.2,92.177a7.884,7.884,0,0,1-7.628,5.9" transform="translate(0 0)" fill="#4ca1bf" stroke="#4ca1bf" stroke-width="1"/>
    <path id="Path_759" data-name="Path 759" d="M47.285,58.775a2.107,2.107,0,0,1-2.1-2.1V50.413a1.026,1.026,0,0,0-1.027-1.027H37.9a2.1,2.1,0,0,1,0-4.2h6.258a1.025,1.025,0,0,0,1.027-1.025V37.9a2.1,2.1,0,0,1,4.205,0v6.261a1.025,1.025,0,0,0,1.027,1.025h6.258a2.1,2.1,0,0,1,0,4.2H50.414a1.026,1.026,0,0,0-1.027,1.027v6.259a2.107,2.107,0,0,1-2.1,2.1" transform="translate(17.398 17.398)" fill="#4ca1bf" stroke="#4ca1bf" stroke-width="1"/>
  </g>
</svg>
